<svg width="34" height="34" viewBox="0 0 34 34" fill="none" xmlns="http://www.w3.org/2000/svg">
<path d="M2.58021 0.43934L16.5057 14.3652L30.4313 0.43934C30.972 -0.101386 31.8229 -0.142978 32.4113 0.314559L32.5722 0.458898C33.1579 1.04468 33.1579 1.99443 32.5722 2.58022L18.6462 16.5057L32.5722 30.4312C33.1129 30.972 33.1545 31.8228 32.6969 32.4112L32.5526 32.5721C31.9668 33.1579 31.0171 33.1579 30.4313 32.5721L16.5057 18.6462L2.58021 32.5721C2.03948 33.1128 1.18864 33.1544 0.6002 32.6969L0.439342 32.5526C-0.146446 31.9668 -0.146446 31.017 0.439342 30.4312L14.3652 16.5057L0.439342 2.58022C-0.101384 2.03949 -0.142982 1.18865 0.314555 0.600209L0.458934 0.43934C1.04472 -0.146447 1.99442 -0.146447 2.58021 0.43934ZM1.49998 1.51956L16.4866 16.5057L1.49998 31.4919L1.51957 31.5115L16.5057 16.5249L31.4919 31.5115L31.5115 31.4919L16.5249 16.5057L31.5115 1.51956L31.4919 1.5L16.5057 16.4866L1.51957 1.5L1.49998 1.51956Z" fill="white"/>
</svg>
