<svg width="58" height="58" viewBox="0 0 58 58" fill="none" xmlns="http://www.w3.org/2000/svg">
<circle cx="29" cy="29" r="28.5" fill="white" stroke="#21A6E9"/>
<g clip-path="url(#clip0_734_100)">
<path d="M37.5878 35.9109L33.1028 29.0215C32.7784 28.5224 32.2249 28.2983 31.6702 28.2983C31.5554 28.2983 31.3178 28.301 31.061 28.3046C31.041 28.271 31.0201 28.2376 30.9863 28.2149L29.8567 27.4647C29.7263 27.3782 29.5571 27.3828 29.4321 27.4747L28.4979 28.1643L27.563 27.4747C27.437 27.3828 27.2688 27.3782 27.1374 27.4647L26.0098 28.2149C25.9779 28.2357 25.9577 28.2649 25.9391 28.2955C25.673 28.2972 25.425 28.2986 25.3205 28.2986C24.7683 28.2986 24.2174 28.5257 23.895 29.0215L19.4099 35.9109C18.9331 36.6422 19.1261 37.6202 19.8452 38.1155L20.8408 38.8018C21.4409 37.3726 22.4321 36.1505 23.677 35.2583L23.9337 34.8635V35.0763C24.8358 34.4804 25.8599 34.0578 26.9593 33.8506C26.6327 33.1256 26.3585 32.262 26.1575 31.4479C25.9232 30.498 25.7859 29.6177 25.7859 29.1191C25.7859 28.9344 25.8097 28.7564 25.846 28.5829L26.6618 31.2827C26.704 31.4241 26.8263 31.5262 26.9728 31.5435C26.9876 31.5451 27.0019 31.546 27.016 31.546C27.1464 31.546 27.2697 31.4771 27.3367 31.3619L27.9728 30.2663L28.1517 30.4447C27.7235 31.0112 27.5553 32.6056 27.4899 33.7696C27.8204 33.7291 28.1551 33.7022 28.4962 33.7022C28.838 33.7022 29.1738 33.7296 29.5052 33.77C29.4399 32.6061 29.2717 31.0116 28.8424 30.4447L29.0213 30.2652L29.6594 31.3618C29.7264 31.477 29.848 31.5459 29.9794 31.5459C29.9934 31.5459 30.0081 31.545 30.0223 31.5434C30.1687 31.5261 30.291 31.424 30.3343 31.2826L31.1496 28.5885C31.1846 28.7603 31.2076 28.9365 31.2076 29.1191C31.2076 30.0455 30.7431 32.2801 30.0347 33.8506C31.1362 34.0583 32.1619 34.482 33.0641 35.0794V34.8645L33.3251 35.2645C34.5657 36.1571 35.5542 37.3771 36.1527 38.8039L37.1526 38.1155C37.8715 37.6202 38.0636 36.6422 37.5878 35.9109ZM27.1243 30.2526L26.6495 28.6799L27.3324 28.2256L28.0116 28.7266L27.1243 30.2526ZM29.8707 30.2526L28.9843 28.7266L29.6629 28.2256L30.3466 28.6798L29.8707 30.2526Z" fill="#21A6E9"/>
<path d="M26.1719 38.4133L26.9825 39.4799C27.4318 39.2091 27.9526 39.0606 28.4945 39.0606C29.0373 39.0606 29.5591 39.209 30.0084 39.4804L30.8191 38.413C30.187 37.8177 29.3667 37.4912 28.4955 37.4912C27.6238 37.4912 26.8025 37.8182 26.1719 38.4133Z" fill="#21A6E9"/>
<path d="M24.7383 23.8519C24.7658 25.2552 25.563 26.4575 26.7245 27.0818C27.2549 27.3674 27.8531 27.544 28.4981 27.544C29.1422 27.544 29.7386 27.3677 30.2684 27.0827C31.4296 26.4592 32.2298 25.2571 32.2563 23.8533C31.2982 24.519 29.9467 24.9516 28.4981 24.9516C27.0495 24.9516 25.6976 24.519 24.7383 23.8519Z" fill="#21A6E9"/>
<path d="M24.6327 20.5199L24.6203 21.6337C24.6223 22.5152 26.3581 23.6635 28.5 23.6635C30.642 23.6635 32.3762 22.5152 32.3771 21.6337L32.3657 20.5205C32.9293 20.3737 33.3667 20.1557 33.6468 19.8423C33.8662 19.5979 33.9923 19.2965 33.9923 18.9172C33.9924 17.1986 31.531 15 28.5001 15C25.4664 15 23.0078 17.1986 23.0078 18.9172C23.0078 19.2965 23.1331 19.5974 23.3516 19.8423C23.6318 20.1556 24.0697 20.3737 24.6327 20.5199Z" fill="#21A6E9"/>
<path d="M28.4958 34.6759C24.4576 34.6759 21.1719 37.9617 21.1719 42H23.017C23.017 41.9973 23.017 41.9937 23.017 41.9911V41.9894C23.0769 41.6279 23.3869 41.3646 23.7508 41.3646C23.7572 41.3646 23.7642 41.3651 23.7712 41.3651L26.6217 41.4391C26.568 41.6181 26.5308 41.8039 26.5308 42H30.4625C30.4625 41.8039 30.4256 41.6181 30.371 41.4391L33.2224 41.3651C33.2284 41.3651 33.2344 41.3646 33.2418 41.3646C33.6054 41.3646 33.9167 41.6279 33.9763 41.9894V41.9911C33.9763 41.9937 33.9763 41.9973 33.9763 42H35.8197C35.8198 37.9617 32.5352 34.6759 28.4958 34.6759ZM31.6575 38.9198L30.1381 40.9218C29.7859 40.3878 29.183 40.0341 28.4958 40.0341C27.8102 40.0341 27.2067 40.3875 26.8551 40.9215L25.3361 38.9204C25.0771 38.579 25.1095 38.0978 25.4128 37.7945C26.2647 36.9432 27.3802 36.5175 28.4968 36.5175C29.613 36.5175 30.7285 36.9432 31.5817 37.7952C31.8847 38.0983 31.9166 38.5785 31.6575 38.9198Z" fill="#21A6E9"/>
</g>
<defs>
<clipPath id="clip0_734_100">
<rect width="27" height="27" fill="white" transform="translate(15 15)"/>
</clipPath>
</defs>
</svg>
