<svg width="24" height="24" viewBox="0 0 24 24" fill="none" xmlns="http://www.w3.org/2000/svg">
<path d="M17.2654 10.2154C18.3315 10.226 19.351 10.6542 20.1049 11.4081C20.8588 12.162 21.287 13.1814 21.2976 14.2476C21.3112 15.3001 20.8736 16.3059 20.1618 17.053C19.394 17.8589 18.3573 18.2657 17.2654 18.2798C15.6669 18.3003 15.665 20.781 17.2654 20.7604C20.8432 20.7144 23.7322 17.8254 23.7783 14.2475C23.8243 10.6695 20.7739 7.77983 17.2654 7.73476C15.665 7.71418 15.6669 10.1949 17.2654 10.2154ZM6.68527 18.265C5.61913 18.2544 4.59965 17.8262 3.84574 17.0723C3.09183 16.3184 2.66361 15.2989 2.65304 14.2328C2.63951 13.1802 3.07702 12.1744 3.78884 11.4272C4.55663 10.6213 5.59325 10.2146 6.68525 10.2005C8.28368 10.18 8.28565 7.69925 6.68525 7.71985C3.10737 7.76584 0.218373 10.6548 0.172388 14.2328C0.126404 17.8108 3.17675 20.7006 6.68527 20.7456C8.28568 20.7662 8.28371 18.2855 6.68527 18.265Z" fill="#4A5699"/>
<path d="M7.96124 9.00476C7.97177 7.93863 8.39996 6.91915 9.15386 6.16525C9.90776 5.41134 10.9272 4.98315 11.9934 4.97262C13.0459 4.95909 14.0517 5.39665 14.7988 6.10844C15.6048 6.87623 16.0115 7.91278 16.0256 9.00476C16.0461 10.6032 18.5268 10.6052 18.5063 9.00476C18.4602 5.42695 15.5712 2.53795 11.9934 2.49197C8.4153 2.44598 5.52569 5.49623 5.4806 9.00476C5.45997 10.6052 7.94069 10.6032 7.96124 9.00476Z" fill="#C45FA0"/>
<path d="M12.774 11.0878C13.1617 11.4755 13.1617 12.1039 12.774 12.4916L9.89381 15.3719C9.50611 15.7595 8.87763 15.7595 8.49 15.3719C8.10229 14.9841 8.10229 14.3556 8.49 13.9681L11.3703 11.0878C11.7579 10.7001 12.3864 10.7001 12.774 11.0878Z" fill="#F39A2B"/>
<path d="M11.3729 11.0877C11.7605 10.7001 12.389 10.7001 12.7766 11.0877L15.657 13.9681C16.0446 14.3556 16.0446 14.9842 15.657 15.3719C15.2693 15.7595 14.6407 15.7595 14.2531 15.3719L11.3729 12.4917C10.9851 12.1039 10.9851 11.4754 11.3729 11.0877Z" fill="#F39A2B"/>
<path d="M12.0483 14.8617C12.6102 14.8617 13.0656 15.3172 13.0656 15.8789V20.0527C13.0656 20.6145 12.6101 21.0699 12.0483 21.0699C11.4867 21.0699 11.0312 20.6145 11.0312 20.0527V15.8789C11.0313 15.3171 11.4867 14.8617 12.0483 14.8617Z" fill="#E5594F"/>
</svg>
