<svg width="71" height="71" viewBox="0 0 71 71" fill="none" xmlns="http://www.w3.org/2000/svg">
<g clip-path="url(#clip0_34_202)">
<path d="M0.554688 19.5527C0.554688 23.3462 3.22412 26.5701 6.65625 27.7555V65.0371H0.554688V70.0293H70.4453V65.0371H64.3438V27.7494C67.9187 26.6552 70.3618 23.4794 70.4453 19.5527V17.334H0.554688V19.5527ZM18.1078 19.3714C18.1078 21.1677 19.9812 28.0994 26.9071 28.0994C32.9224 28.0994 35.5607 22.6593 35.5607 19.3714C35.5607 22.4366 37.6159 28.093 44.2871 28.093C50.3146 28.093 52.9854 22.269 52.9854 19.3714C52.9854 23.372 55.6829 26.6977 59.3516 27.7344V65.0371H11.6484V27.7604C15.3654 26.7542 18.1078 23.4064 18.1078 19.3714ZM70.4453 15.3926H0.554688L9.42969 6.51758V0.970703H61.8477V6.51758H61.8011L70.4453 15.3926ZM46.5596 56.5631C46.5957 56.8871 46.5596 57.2707 46.4756 57.6306L43.4173 54.8123L40.6589 57.8226L43.7532 60.629C43.3935 60.7488 43.0457 60.8329 42.6857 60.8329C41.6182 60.8689 40.7069 60.545 39.9272 59.8375C39.1476 59.0939 38.728 58.2303 38.692 57.163C38.692 56.7911 38.728 56.3715 38.8118 56.0118L38.0682 55.3043L33.6188 51.2384L26.087 59.5374C25.6313 60.1489 24.9235 60.5688 24.1081 60.5688C22.7888 60.5688 21.7216 59.5013 21.7216 58.1823C21.7216 57.4748 21.9975 56.8269 22.5372 56.3712L30.3569 48.2636L25.6313 43.934C25.2594 44.1018 24.8397 44.1858 24.48 44.1858C23.4125 44.2219 22.5012 43.898 21.7216 43.1905C20.9419 42.483 20.5223 41.6193 20.4863 40.5518C20.4502 40.2279 20.4863 39.8443 20.5703 39.4843L23.6646 42.2908L26.3992 39.2924L23.3049 36.486C23.6289 36.3661 24.0124 36.2821 24.3724 36.2821C25.4399 36.2461 26.3513 36.57 27.1309 37.2775C27.9105 37.9731 28.3301 38.8847 28.3662 39.9519C28.4022 40.3116 28.3662 40.6594 28.2821 41.0194L33.1515 45.481L36.7134 41.6312L31.3884 36.9419L36.2216 31.4369L49.9061 43.4783L45.0728 48.9833L39.6039 44.162L36.1617 48.2279L41.5109 53.121C41.8706 53.0012 42.2184 52.9172 42.5784 52.9172C43.6459 52.8811 44.5572 53.2051 45.3368 53.9126C46.1159 54.6082 46.5355 55.4718 46.5596 56.5631Z" fill="#1B2E3F"/>
</g>
<defs>
<clipPath id="clip0_34_202">
<rect width="71" height="71" fill="white"/>
</clipPath>
</defs>
</svg>
