<svg width="181" height="26" viewBox="0 0 181 26" fill="none" xmlns="http://www.w3.org/2000/svg">
<path d="M13.2389 1.48541C13.5383 0.564105 14.8417 0.564108 15.1411 1.48541L17.5577 8.92311C17.6916 9.33513 18.0755 9.61409 18.5088 9.61409H26.3292C27.2979 9.61409 27.7007 10.8537 26.917 11.4231L20.5901 16.0199C20.2396 16.2745 20.093 16.7259 20.2269 17.1379L22.6435 24.5756C22.9429 25.4969 21.8884 26.263 21.1047 25.6936L14.7778 21.0969C14.4273 20.8423 13.9527 20.8423 13.6022 21.0969L7.2753 25.6936C6.49159 26.2631 5.43711 25.4969 5.73646 24.5756L8.15312 17.1379C8.28699 16.7259 8.14033 16.2745 7.78984 16.0199L1.46296 11.4231C0.679245 10.8537 1.08202 9.61409 2.05075 9.61409H9.8712C10.3045 9.61409 10.6884 9.33513 10.8223 8.92311L13.2389 1.48541Z" fill="#F7722A"/>
<path d="M51.2389 1.48541C51.5383 0.564105 52.8417 0.564108 53.1411 1.48541L55.5577 8.92311C55.6916 9.33513 56.0755 9.61409 56.5088 9.61409H64.3292C65.2979 9.61409 65.7007 10.8537 64.917 11.4231L58.5901 16.0199C58.2396 16.2745 58.093 16.7259 58.2269 17.1379L60.6435 24.5756C60.9429 25.4969 59.8884 26.263 59.1047 25.6936L52.7778 21.0969C52.4273 20.8423 51.9527 20.8423 51.6022 21.0969L45.2753 25.6936C44.4916 26.2631 43.4371 25.4969 43.7365 24.5756L46.1531 17.1379C46.287 16.7259 46.1403 16.2745 45.7898 16.0199L39.463 11.4231C38.6792 10.8537 39.082 9.61409 40.0507 9.61409H47.8712C48.3045 9.61409 48.6884 9.33513 48.8223 8.92311L51.2389 1.48541Z" fill="#F7722A"/>
<path d="M89.2389 1.48541C89.5383 0.564105 90.8417 0.564108 91.1411 1.48541L93.5577 8.92311C93.6916 9.33513 94.0755 9.61409 94.5088 9.61409H102.329C103.298 9.61409 103.701 10.8537 102.917 11.4231L96.5901 16.0199C96.2396 16.2745 96.093 16.7259 96.2269 17.1379L98.6435 24.5756C98.9429 25.4969 97.8884 26.263 97.1047 25.6936L90.7778 21.0969C90.4273 20.8423 89.9527 20.8423 89.6022 21.0969L83.2753 25.6936C82.4916 26.2631 81.4371 25.4969 81.7365 24.5756L84.1531 17.1379C84.287 16.7259 84.1403 16.2745 83.7898 16.0199L77.463 11.4231C76.6792 10.8537 77.082 9.61409 78.0507 9.61409H85.8712C86.3045 9.61409 86.6884 9.33513 86.8223 8.92311L89.2389 1.48541Z" fill="#F7722A"/>
<path d="M127.239 1.48541C127.538 0.564105 128.842 0.564108 129.141 1.48541L131.558 8.92311C131.692 9.33513 132.075 9.61409 132.509 9.61409H140.329C141.298 9.61409 141.701 10.8537 140.917 11.4231L134.59 16.0199C134.24 16.2745 134.093 16.7259 134.227 17.1379L136.643 24.5756C136.943 25.4969 135.888 26.263 135.105 25.6936L128.778 21.0969C128.427 20.8423 127.953 20.8423 127.602 21.0969L121.275 25.6936C120.492 26.2631 119.437 25.4969 119.736 24.5756L122.153 17.1379C122.287 16.7259 122.14 16.2745 121.79 16.0199L115.463 11.4231C114.679 10.8537 115.082 9.61409 116.051 9.61409H123.871C124.304 9.61409 124.688 9.33513 124.822 8.92311L127.239 1.48541Z" fill="#F7722A"/>
<path d="M165.239 1.48541C165.538 0.564105 166.842 0.564108 167.141 1.48541L169.558 8.92311C169.692 9.33513 170.075 9.61409 170.509 9.61409H178.329C179.298 9.61409 179.701 10.8537 178.917 11.4231L172.59 16.0199C172.24 16.2745 172.093 16.7259 172.227 17.1379L174.643 24.5756C174.943 25.4969 173.888 26.263 173.105 25.6936L166.778 21.0969C166.427 20.8423 165.953 20.8423 165.602 21.0969L159.275 25.6936C158.492 26.2631 157.437 25.4969 157.736 24.5756L160.153 17.1379C160.287 16.7259 160.14 16.2745 159.79 16.0199L153.463 11.4231C152.679 10.8537 153.082 9.61409 154.051 9.61409H161.871C162.304 9.61409 162.688 9.33513 162.822 8.92311L165.239 1.48541Z" fill="#F7722A"/>
</svg>
