<svg width="70" height="70" viewBox="0 0 70 70" fill="none" xmlns="http://www.w3.org/2000/svg">
<path d="M61.4688 2.75621C61.4086 2.76714 61.3485 2.78355 61.2938 2.79996H56C55.6227 2.79996 55.2563 2.96949 54.9938 3.23746L35.3063 23.2312L37.0125 25.4187L42.3063 20.0812L43.2688 29.225L41.7375 31.5L43.3125 33.5562C43.3836 33.6492 43.4657 33.7257 43.5313 33.8187L60.2 8.83746V39.5937C59.3633 40.0804 58.8 40.9664 58.8 42C58.8 43.0335 59.3633 43.9195 60.2 44.4062V46.1562C60.2 47.4687 61.0532 48.7046 62.3875 49.0875C63.7055 49.4648 64.6297 50.7718 64.3563 52.325C64.1649 53.4078 63.2133 54.3648 62.125 54.5562C60.2875 54.8789 58.8 53.5335 58.8 51.8C58.8055 51.2968 58.543 50.8265 58.1055 50.5695C57.668 50.3179 57.1321 50.3179 56.6946 50.5695C56.2571 50.8265 55.9946 51.2968 56 51.8C56 55.207 59.1336 57.9195 62.6063 57.3125C64.8977 56.9078 66.7133 55.0976 67.1125 52.8062C67.6266 49.875 65.7891 47.1734 63.1313 46.4187C63.0766 46.4023 63 46.2875 63 46.1562V44.4062C63.8368 43.9195 64.4 43.0335 64.4 42C64.4 40.9664 63.8368 40.0804 63 39.5937V4.28746C63.0055 4.22183 63.0055 4.13433 63 4.06871C62.9891 4.00855 62.9727 3.94839 62.9563 3.89371C62.929 3.77339 62.8852 3.65308 62.825 3.54371C62.7649 3.43433 62.6938 3.33042 62.6063 3.23746C62.568 3.18824 62.5243 3.14449 62.475 3.10621C62.3711 3.01871 62.2508 2.94214 62.125 2.88746C62.0813 2.87105 62.043 2.85464 61.9938 2.84371C61.8243 2.78355 61.6493 2.75074 61.4688 2.75621ZM56.5688 5.59996H58.975L54.2063 12.775L53.8125 8.35621L56.5688 5.59996ZM51.2313 11.025L51.5813 15.3125L46.6813 15.6187L51.2313 11.025ZM50.6188 18.1562L45.675 25.55L44.9313 18.55L50.6188 18.1562ZM11.2 22.4C8.88677 22.4 7.00005 24.2867 7.00005 26.6V43.4C7.00005 45.7132 8.88677 47.6 11.2 47.6H15.4V50.4H11.2C6.56802 50.4 2.80005 54.1679 2.80005 58.8C2.80005 63.432 6.56802 67.2 11.2 67.2H42C46.6321 67.2 50.4 63.432 50.4 58.8C50.4 54.1679 46.6321 50.4 42 50.4H37.8V47.6H39.2C41.5133 47.6 43.4 45.7132 43.4 43.4V37.8C43.3891 36.575 42.968 35.3554 42.2188 34.3875L34.1688 24.0187C33.3758 23.007 32.129 22.4 30.8438 22.4H11.2ZM25.6375 25.2H30.8438C31.2758 25.2 31.675 25.3859 31.9375 25.725L40.0313 36.1375C40.4032 36.6132 40.5891 37.1929 40.6 37.8H29.05L25.6375 25.2ZM18.2 47.6H35V50.4H18.2V47.6ZM11.2 56C12.7477 56 14 57.2523 14 58.8C14 60.3476 12.7477 61.6 11.2 61.6C9.65239 61.6 8.40005 60.3476 8.40005 58.8C8.40005 57.2523 9.65239 56 11.2 56ZM19.6 56C21.1477 56 22.4 57.2523 22.4 58.8C22.4 60.3476 21.1477 61.6 19.6 61.6C18.0524 61.6 16.8 60.3476 16.8 58.8C16.8 57.2523 18.0524 56 19.6 56ZM33.6 56C35.1477 56 36.4 57.2523 36.4 58.8C36.4 60.3476 35.1477 61.6 33.6 61.6C32.0524 61.6 30.8 60.3476 30.8 58.8C30.8 57.2523 32.0524 56 33.6 56ZM42 56C43.5477 56 44.8 57.2523 44.8 58.8C44.8 60.3476 43.5477 61.6 42 61.6C40.4524 61.6 39.2 60.3476 39.2 58.8C39.2 57.2523 40.4524 56 42 56Z" fill="black"/>
</svg>
