<svg width="71" height="71" viewBox="0 0 71 71" fill="none" xmlns="http://www.w3.org/2000/svg">
<path d="M60.9535 56.9554L68.7435 62.8661C70.4387 58.4663 69.1873 53.3011 65.2401 50.3058C62.2049 48.0027 58.3442 47.5368 55.0117 48.7238L53.8313 47.8297L53.676 47.5368C54.4969 46.3697 55.2092 45.1494 55.8082 43.8892L61.1709 43.7405L62.2692 40.2349L57.936 37.0443C58.1468 35.733 58.2511 34.4062 58.2533 33.0816L63.0613 30.641L62.5532 27.0023L57.246 25.9639C56.8022 24.4374 56.212 22.9419 55.4754 21.502L58.6393 17.1244L56.5227 14.1202L51.3153 15.6334C51.2509 15.5646 51.1866 15.4958 51.12 15.427C50.288 14.5662 49.4093 13.7785 48.493 13.0618L49.4937 7.91213L46.3097 6.07722L42.3582 9.51851C41.0779 9.00376 39.7644 8.59772 38.4332 8.30041L37.1374 3.21726L33.4743 2.91772L31.3643 7.73685C30.2726 7.80341 29.1854 7.93876 28.1071 8.14732L24.8811 3.98272L21.4021 5.16532L21.3843 10.4681C19.9111 11.2269 18.4933 12.1388 17.1598 13.2105L12.2453 10.9962L9.72922 13.6742L12.2453 18.4468C11.4332 19.6027 10.7299 20.8142 10.1352 22.0633L4.73703 22.212L3.63875 25.7176L8.00081 28.9303C7.79225 30.2305 7.68575 31.5463 7.68131 32.862L2.84444 35.3159L3.35253 38.9547L8.66422 39.993C8.9815 41.098 9.372 42.1874 9.84237 43.2502L6.33675 47.5967L8.29147 50.7074L13.7341 49.436C14.0757 49.8376 14.433 50.2326 14.8035 50.6164C15.5867 51.4263 16.4077 52.1718 17.2597 52.8529L16.2013 58.3088L19.3852 60.1437L23.5409 56.5227C24.7346 57.002 25.9572 57.3858 27.1997 57.6743L28.5575 63.0015L32.2207 63.301L34.4195 58.28C35.9415 58.189 37.4569 57.9605 38.9479 57.5966L42.4447 61.6458L45.8571 60.2791L45.673 56.5405L47.834 58.1801C47.5789 61.7235 49.0388 65.3533 52.0696 67.6564C56.0146 70.6495 61.3262 70.4653 65.1092 67.6475L57.3214 61.739C55.948 60.6984 55.6307 58.7259 56.6292 57.408C57.6276 56.0901 59.5757 55.917 60.9468 56.9598L60.9535 56.9554ZM30.7186 52.6643C26.3144 52.1673 22.0832 50.1793 18.764 46.7425C11.1736 38.8925 11.3911 26.4032 19.2432 18.8151C27.0954 11.2269 39.5892 11.3601 47.1773 19.21C53.8602 26.1214 54.4836 36.6893 49.1808 44.2996L36.2632 34.4994C36.5073 30.9738 35.0185 27.3772 31.9855 25.0764C28.0406 22.0833 22.7289 22.2674 18.9459 25.0853L26.7337 30.9938C28.1049 32.0344 28.4643 33.9536 27.4659 35.2738C26.4675 36.5939 24.4795 36.818 23.1083 35.7752L15.3205 29.8667C13.6276 34.2664 14.8767 39.4317 18.8239 42.427C21.8569 44.7256 25.7486 45.1538 29.0923 43.9535L39.3362 51.7258C36.5539 52.6754 33.6074 52.9883 30.7208 52.6621L30.7186 52.6643Z" fill="black"/>
</svg>
