<svg width="31" height="31" viewBox="0 0 31 31" fill="none" xmlns="http://www.w3.org/2000/svg">
<path d="M20.4574 7.12533C20.5208 7.06672 20.5952 7.02126 20.6763 6.99158C20.7574 6.9619 20.8436 6.94859 20.9298 6.95242C21.0395 6.94885 21.1481 6.97512 21.244 7.02841C21.3399 7.08171 21.4196 7.16003 21.4745 7.25504C21.6596 7.57596 21.6518 8.16747 21.5276 8.5334C21.4395 8.79256 21.2957 9.18907 20.9479 9.4734C20.8715 9.53702 20.7826 9.58411 20.6871 9.6117C20.5915 9.63929 20.4912 9.64677 20.3926 9.63368L20.3393 9.62509C20.287 9.80197 20.2232 9.97523 20.1482 10.1438C19.9986 10.5501 19.1306 12.0362 18.0591 12.4802C18.0591 12.5653 18.0591 12.6281 18.0591 12.6281C18.0591 12.6902 18.0591 12.8878 18.0591 13.0726C17.5504 13.4741 16.5434 14.2666 16.4457 14.3353H16.148C16.052 14.2673 15.0813 13.5038 14.5641 13.0958C14.5641 12.9371 14.5641 12.7075 14.5641 12.4999C14.0437 12.2929 13.5853 11.9222 13.1515 11.4029C12.719 10.8804 12.3981 10.275 12.2084 9.62381C12.1034 9.64609 11.9946 9.64413 11.8904 9.61807C11.7862 9.592 11.6893 9.54253 11.6072 9.4734C11.2597 9.18907 11.1155 8.79256 11.0276 8.5334C10.9034 8.16747 10.8956 7.57596 11.0806 7.25504C11.1355 7.16003 11.2152 7.08171 11.3111 7.02841C11.407 6.97512 11.5156 6.94885 11.6253 6.95242C11.7115 6.9486 11.7977 6.96191 11.8788 6.99159C11.9599 7.02127 12.0343 7.06673 12.0977 7.12533C12.0977 7.12533 11.3418 2.90466 16.2777 2.90466C21.2135 2.90466 20.4574 7.12533 20.4574 7.12533Z" fill="white"/>
<path d="M15.6494 21.5026C15.4393 20.9271 15.2755 20.4188 15.0039 19.5849C14.3844 17.6826 13.8088 15.5906 13.3682 13.6339C13.1707 13.7606 12.9215 13.9352 12.6696 14.1339L12.4764 14.2098L11.8299 14.4637C10.263 15.1215 8.78858 15.8043 8.06754 16.9022L5.56641 19.773C5.62258 20.8914 5.68478 21.7382 5.76466 22.7227C5.81526 23.3451 5.86877 23.9682 5.95244 24.5867C6.00333 25.0768 6.10607 25.5601 6.25893 26.0286C6.50804 26.79 7.06424 27.531 7.87066 27.7552C8.67545 27.9785 9.79103 27.8661 10.3703 27.0962C10.3739 27.4301 10.3765 27.7065 10.3781 27.9051H18.5753C18.7015 28.2497 18.8312 28.5995 18.9542 28.9237C19.0807 29.2549 19.1912 29.5564 19.2716 29.7886C19.2837 29.8225 19.3082 29.8507 19.3401 29.8675C19.372 29.8844 19.4091 29.8886 19.444 29.8795C20.5517 29.5716 21.6399 29.1976 22.7029 28.7596C23.4051 28.4711 24.3202 28.0246 24.9496 27.5235C25.4822 27.0992 25.9339 26.4317 26.0717 25.995C26.2477 25.4373 26.3083 24.9844 26.2685 24.088C26.1043 22.7531 25.9353 21.6558 25.7281 20.6976C25.4233 19.2874 25.0389 17.6838 24.5246 16.9018C23.803 15.804 22.3288 15.1212 20.7622 14.4633L20.1157 14.2095L19.9225 14.1336C19.6705 13.9349 19.4216 13.7602 19.2239 13.6335C19.0229 14.5262 18.7937 15.4471 18.5453 16.3651C18.249 17.4594 17.9251 18.55 17.5883 19.5844C17.1293 20.9939 16.9784 21.4722 16.391 22.9211H16.202C15.9614 22.3299 15.7944 21.9002 15.6494 21.5026Z" fill="#7A7473"/>
<path d="M10.9695 4.38953C10.957 4.49321 10.9476 4.5871 10.9414 4.66372C10.8651 5.59633 11.0779 6.3397 11.3653 7.00388C11.4475 6.97176 11.5348 6.95431 11.623 6.95234C11.7093 6.94852 11.7955 6.96183 11.8766 6.99151C11.9576 7.02119 12.0321 7.06665 12.0955 7.12525L12.3008 7.32282L12.3088 7.23615C12.3332 6.91388 12.3802 6.59373 12.4494 6.27803C12.5232 5.9285 12.6164 5.56635 12.9326 5.27618L13.6178 4.79514C13.7996 4.78475 14.0129 4.75718 14.1571 4.76199C15.4628 4.80494 16.7916 4.5578 17.8023 4.08338L18.6062 4.55162C19.1182 4.99338 19.5432 5.52688 19.8593 6.1247C19.9624 6.31814 20.1979 6.9751 20.3669 7.23581C20.4274 7.14355 20.511 7.0688 20.6094 7.01905C20.7079 6.9693 20.8177 6.94629 20.9278 6.95234C21.0199 6.95416 21.1109 6.97303 21.1962 7.008C21.5245 5.28932 21.5934 4.24985 20.929 2.9106C20.7923 2.6519 20.6276 2.40899 20.4379 2.18621C20.0985 1.81083 19.6758 1.5202 19.2038 1.3376L18.2989 0.943842C17.3929 0.0601939 15.7551 0.0601939 14.6274 0.477493C13.5698 0.86868 12.9984 1.42084 12.3125 1.93675C12.0695 2.132 11.7882 2.27395 11.4868 2.35337L11.2291 3.26991C11.104 3.49059 11.0157 4.00521 10.9695 4.38953Z" fill="#85807F"/>
<path d="M15.5037 10.6498C15.7559 10.7801 16.0367 10.8451 16.3205 10.8387C16.614 10.8513 16.9034 10.7662 17.1434 10.5967C17.1818 10.5579 17.2033 10.5055 17.2033 10.4509C17.2033 10.3963 17.1818 10.3439 17.1434 10.3051C17.104 10.2677 17.0519 10.2468 16.9976 10.2468C16.9433 10.2468 16.8911 10.2677 16.8518 10.3051C16.9139 10.2567 16.8642 10.2948 16.8482 10.3051C16.8322 10.3154 16.8148 10.3254 16.7975 10.3345C16.7837 10.3417 16.7219 10.3665 16.7772 10.3459C16.754 10.3545 16.7309 10.3637 16.7072 10.3717C16.6433 10.392 16.5779 10.4069 16.5115 10.4164C16.5411 10.4121 16.5019 10.4171 16.491 10.4183C16.4718 10.4201 16.4525 10.4218 16.4333 10.423C16.387 10.426 16.3405 10.4272 16.2941 10.4269C16.2526 10.4269 16.211 10.4254 16.1695 10.4224C16.1504 10.4211 16.1314 10.4195 16.1125 10.4177C16.1115 10.4177 16.0438 10.4083 16.083 10.4145C16.0212 10.405 15.9601 10.3915 15.9001 10.3738C15.8744 10.3662 15.8495 10.3567 15.8243 10.3481C15.8158 10.3459 15.8076 10.3427 15.7998 10.3385C15.8413 10.3667 15.8214 10.3482 15.8047 10.3403C15.7733 10.3256 15.7424 10.3102 15.7118 10.294C15.6643 10.2675 15.6084 10.2604 15.5559 10.2742C15.5033 10.288 15.4581 10.3216 15.4297 10.3679C15.4027 10.4153 15.3953 10.4713 15.4092 10.5241C15.423 10.5768 15.4569 10.622 15.5037 10.65V10.6498Z" fill="#211715"/>
<path d="M16.2203 8.72145C16.2581 8.85783 16.2884 8.99619 16.3109 9.13591L16.3036 9.08111C16.3063 9.10005 16.3068 9.11925 16.3052 9.13832L16.3125 9.08351C16.3113 9.09229 16.3092 9.10092 16.3062 9.10928L16.327 9.06006C16.3245 9.06584 16.3215 9.07136 16.3179 9.07656L16.3501 9.03489C16.3461 9.03982 16.3416 9.04428 16.3366 9.04821L16.3784 9.016C16.3678 9.02246 16.3568 9.0282 16.3455 9.03318L16.3948 9.01239C16.3771 9.01997 16.3585 9.02539 16.3395 9.02854L16.3943 9.02115C16.3771 9.02318 16.3598 9.02318 16.3427 9.02115L16.3975 9.02854C16.3779 9.02579 16.3587 9.02106 16.3391 9.0184C16.2854 9.0059 16.229 9.01328 16.1803 9.03919C16.1569 9.05285 16.1364 9.07099 16.1201 9.09256C16.1037 9.11413 16.0917 9.13872 16.0849 9.16491C16.078 9.19111 16.0764 9.2184 16.08 9.24523C16.0837 9.27206 16.0927 9.29791 16.1063 9.32128C16.1194 9.34456 16.137 9.36494 16.1582 9.38118C16.1794 9.39742 16.2036 9.40919 16.2295 9.41577C16.2735 9.4217 16.3163 9.43295 16.361 9.43493C16.4281 9.43535 16.4943 9.41964 16.554 9.38914C16.5918 9.37209 16.6252 9.3468 16.6518 9.31514C16.6785 9.28348 16.6977 9.24625 16.7081 9.20618C16.7217 9.14095 16.721 9.07355 16.7062 9.00861C16.6836 8.87512 16.6527 8.74275 16.6184 8.61175C16.6038 8.55902 16.569 8.51423 16.5214 8.48722C16.4738 8.46021 16.4175 8.45321 16.3648 8.46774C16.312 8.48228 16.2672 8.51716 16.2402 8.56473C16.2132 8.61229 16.2062 8.66863 16.2207 8.72136L16.2203 8.72145Z" fill="#211715"/>
<path d="M14.0125 7.54939C13.9438 7.77436 13.9885 8.29173 14.4146 8.3358C14.9779 8.33245 15.0077 7.70684 14.8183 7.41272C14.6629 7.17186 14.2065 7.0717 14.0125 7.54939Z" fill="#211715"/>
<path d="M18.5395 7.5494C18.6088 7.77437 18.5637 8.29183 18.1375 8.33581C17.5743 8.33246 17.5443 7.70685 17.7338 7.41265C17.8891 7.17187 18.3456 7.07171 18.5395 7.5494Z" fill="#211715"/>
<path d="M12.2427 6.97954C12.107 6.85832 11.9382 6.7803 11.758 6.75542C11.5777 6.73055 11.3941 6.75994 11.2306 6.83987C11.1153 6.90301 11.0154 6.99094 10.9382 7.09732C10.8609 7.2037 10.8082 7.32589 10.7839 7.45508C10.7184 7.76177 10.7154 8.07852 10.775 8.38641C10.8347 8.6943 10.9558 8.987 11.1311 9.24703C11.3825 9.62181 11.7468 9.8966 12.2166 9.83243C12.2692 9.81762 12.3138 9.7827 12.3407 9.73523C12.3677 9.68776 12.3749 9.63158 12.3607 9.57886C12.3449 9.52691 12.3098 9.48299 12.2626 9.45618C12.2154 9.42937 12.1597 9.42172 12.107 9.4348C11.7779 9.47981 11.5237 9.12728 11.3901 8.87646C11.2557 8.63199 11.1735 8.36232 11.1486 8.08446C11.1348 7.93034 11.1416 7.77508 11.1688 7.62275C11.189 7.5135 11.2286 7.40876 11.2858 7.31352C11.2726 7.33121 11.3143 7.28225 11.3192 7.27692C11.3312 7.26178 11.3457 7.24889 11.3622 7.23887C11.4159 7.20206 11.477 7.1774 11.5412 7.16663C11.6129 7.15127 11.6872 7.15269 11.7583 7.17076C11.8294 7.18883 11.8954 7.22308 11.9511 7.27082C12.1475 7.44846 12.4399 7.15769 12.2427 6.97928L12.2427 6.97954Z" fill="#211715"/>
<path d="M20.6021 7.27117C20.6982 7.19014 20.8222 7.14994 20.9475 7.15919C21.0729 7.16844 21.1897 7.22639 21.2728 7.32065C21.2448 7.28509 21.2837 7.33955 21.2881 7.34685C21.3043 7.37292 21.3185 7.40017 21.3306 7.42837C21.3547 7.4913 21.3728 7.55639 21.3845 7.62276C21.4117 7.77509 21.4185 7.93035 21.4048 8.08447C21.3803 8.35721 21.3005 8.6221 21.1702 8.86298C21.037 9.11793 20.7806 9.48059 20.4462 9.4349C20.3936 9.42222 20.3381 9.43006 20.291 9.45681C20.2439 9.48356 20.2087 9.52723 20.1927 9.57895C20.1785 9.63166 20.1857 9.68782 20.2126 9.73528C20.2396 9.78274 20.2841 9.81768 20.3366 9.83252C21.0957 9.9362 21.5366 9.18828 21.7334 8.56302C21.8287 8.24185 21.849 7.90309 21.7927 7.57285C21.7785 7.44088 21.738 7.31308 21.6737 7.19696C21.6094 7.08084 21.5225 6.97874 21.4182 6.89665C21.2504 6.78568 21.0505 6.73361 20.8499 6.74863C20.6494 6.76365 20.4595 6.84491 20.3101 6.97963C20.1125 7.15796 20.4052 7.4489 20.6016 7.27117H20.6021Z" fill="#211715"/>
<path d="M20.2187 9.26305C20.1793 9.44642 20.1273 9.62684 20.063 9.80301C20.0432 9.8585 20.0088 9.95059 19.9942 9.9852C19.9797 10.0198 19.9631 10.0539 19.949 10.0883C19.9456 10.0969 19.926 10.1468 19.9397 10.1132C19.9542 10.0779 19.9311 10.1333 19.9277 10.14C19.9199 10.1572 19.912 10.1742 19.9039 10.191C19.8827 10.2352 19.8605 10.2787 19.8376 10.322C19.7861 10.4196 19.7307 10.5154 19.6731 10.6096C19.3765 11.1129 18.9972 11.5627 18.5511 11.94C18.3101 12.146 18.0251 12.2939 17.7179 12.3724C17.4594 12.432 17.5688 12.8297 17.8275 12.77C18.459 12.624 18.985 12.1634 19.3978 11.6845C19.7532 11.2846 20.0506 10.8368 20.2813 10.3541C20.3034 10.3056 20.3228 10.256 20.3435 10.207C20.3162 10.2719 20.3787 10.1267 20.3804 10.1227C20.3975 10.0817 20.4139 10.0403 20.4296 9.99869C20.5084 9.79516 20.571 9.58571 20.6168 9.37231C20.6301 9.31963 20.6225 9.26388 20.5957 9.21664C20.5689 9.16941 20.5249 9.13431 20.4729 9.11865C20.4202 9.10467 20.3641 9.11193 20.3167 9.13887C20.2692 9.16581 20.2343 9.21027 20.2193 9.2627L20.2187 9.26305Z" fill="#211715"/>
<path d="M11.9236 9.3578C12.0629 9.97811 12.314 10.5679 12.6646 11.0982C13.0418 11.6642 13.5374 12.1934 14.1368 12.5262C14.4431 12.6969 14.7778 12.8109 15.1246 12.8627C15.1773 12.8754 15.2329 12.8677 15.28 12.8409C15.3271 12.8142 15.3623 12.7705 15.3783 12.7187C15.3924 12.666 15.3853 12.6098 15.3583 12.5624C15.3313 12.5149 15.2868 12.48 15.2343 12.4651C13.9932 12.2819 13.065 11.206 12.5944 10.1029C12.4779 9.82679 12.3865 9.54073 12.3214 9.24819C12.2628 8.98946 11.8652 9.09899 11.9239 9.3578H11.9236Z" fill="#211715"/>
<path d="M19.15 1.53617C19.8228 1.8089 20.3781 2.3096 20.7188 2.95059C21.0519 3.572 21.2285 4.26523 21.2333 4.97026C21.2313 5.40254 21.1937 5.83392 21.121 6.26004C21.1082 6.31274 21.116 6.36834 21.1428 6.41547C21.1697 6.46261 21.2135 6.49772 21.2653 6.51362C21.318 6.52771 21.3742 6.52052 21.4216 6.49358C21.469 6.46664 21.504 6.42213 21.5189 6.36965C21.6446 5.57078 21.7117 4.76118 21.5327 3.96446C21.3622 3.20632 21.0026 2.43975 20.4437 1.88982C20.1019 1.56443 19.6998 1.30906 19.2599 1.13811C19.2072 1.12392 19.151 1.13108 19.1036 1.15803C19.0561 1.18498 19.0212 1.22955 19.0063 1.28208C18.9931 1.33476 19.0007 1.3905 19.0275 1.43773C19.0543 1.48496 19.0983 1.52006 19.1503 1.53574L19.15 1.53617Z" fill="#211715"/>
<path d="M18.446 0.797847C17.718 0.0975944 16.6285 -0.0805611 15.6564 0.0305069C15.1288 0.0920861 14.6144 0.237391 14.1326 0.460949C13.6539 0.690479 13.2032 0.974479 12.7896 1.30732C12.5784 1.47053 12.3719 1.64035 12.1564 1.79815C11.9376 1.95766 11.6929 2.0782 11.4331 2.15446C11.1802 2.23177 11.2881 2.63017 11.5427 2.55209C11.78 2.48554 12.0069 2.3862 12.2168 2.25694C12.4188 2.12577 12.6064 1.97115 12.7955 1.82237C13.1703 1.51313 13.5702 1.23552 13.9909 0.992409C14.8376 0.528982 15.8345 0.298256 16.7964 0.459832C17.2968 0.5441 17.7842 0.732907 18.1541 1.08896C18.3455 1.27296 18.6374 0.981758 18.4462 0.797417L18.446 0.797847Z" fill="#211715"/>
<path d="M11.0527 3.16568C10.9193 3.40972 10.8689 3.70092 10.8238 3.97194C10.772 4.26683 10.7389 4.56469 10.7245 4.86374C10.7052 5.57845 10.8405 6.2889 11.121 6.94655C11.137 6.99832 11.1721 7.04203 11.2193 7.06878C11.2664 7.09553 11.322 7.1033 11.3746 7.09052C11.4272 7.07569 11.4717 7.04076 11.4987 6.99329C11.5256 6.94582 11.5328 6.88965 11.5186 6.83694C11.2554 6.22677 11.1249 5.5676 11.1359 4.90317C11.146 4.6277 11.1747 4.35323 11.2218 4.08163C11.2608 3.84712 11.3089 3.55713 11.4092 3.37382C11.5365 3.14086 11.1806 2.93255 11.0531 3.16568H11.0527Z" fill="#211715"/>
<path d="M17.699 3.90472C17.0737 4.18575 16.4112 4.37563 15.7319 4.46857C15.3744 4.52103 15.014 4.55089 14.6527 4.55799C14.4733 4.56194 14.2945 4.55404 14.1152 4.5549C13.9493 4.55576 13.7837 4.57826 13.6183 4.58857C13.3547 4.60489 13.3529 5.01738 13.6183 5.00089C13.7885 4.99032 13.959 4.96653 14.1299 4.96713C14.3109 4.9679 14.4914 4.97426 14.6724 4.96988C15.0639 4.95949 15.4544 4.92486 15.8415 4.8662C16.5555 4.7645 17.2512 4.56054 17.9071 4.26061C17.954 4.2327 17.988 4.18748 18.0018 4.1347C18.0157 4.08193 18.0082 4.02583 17.981 3.97851C17.9526 3.93224 17.9074 3.89873 17.8549 3.88495C17.8023 3.87117 17.7465 3.87819 17.699 3.90455V3.90472Z" fill="#211715"/>
<path d="M12.7877 5.13029C12.4917 5.40887 12.3487 5.77686 12.2637 6.16633C12.1883 6.51925 12.1348 6.8765 12.1035 7.23603C12.1039 7.29059 12.1257 7.34281 12.1643 7.38139C12.2029 7.41997 12.2551 7.44181 12.3097 7.44219C12.364 7.44105 12.4158 7.41896 12.4542 7.38055C12.4926 7.34213 12.5147 7.29035 12.5158 7.23603C12.5433 6.92294 12.5898 6.6118 12.6552 6.30437C12.7265 5.97176 12.8252 5.66098 13.0793 5.42184C13.273 5.23964 12.981 4.94844 12.7877 5.13029Z" fill="#211715"/>
<path d="M18.4617 4.69676C18.8706 5.0518 19.2239 5.46632 19.5096 5.92641C19.749 6.31699 19.889 6.74786 20.0893 7.15786C20.1172 7.20469 20.1624 7.23867 20.2152 7.2525C20.2679 7.26633 20.324 7.25891 20.3713 7.23182C20.4177 7.20346 20.4513 7.15825 20.4651 7.10566C20.4788 7.05308 20.4717 6.9972 20.4453 6.94973C20.2398 6.52882 20.0956 6.08841 19.8474 5.68864C19.5473 5.20953 19.1786 4.77708 18.7529 4.40513C18.5544 4.23041 18.2617 4.52101 18.4613 4.69719L18.4617 4.69676Z" fill="#211715"/>
<path d="M16.3896 22.9216C16.9768 21.4727 17.1279 20.9944 17.5869 19.5849C18.1556 17.8383 18.6874 15.9318 19.1117 14.1171C19.1277 14.0265 19.1234 13.9335 19.0992 13.8448C19.0749 13.756 19.0313 13.6738 18.9715 13.6039C18.7806 13.3828 18.5401 13.0627 18.345 12.8447C18.2622 12.9118 16.572 14.2445 16.4438 14.3353H16.1461C16.0179 14.2445 14.3278 12.9118 14.2449 12.8447C14.0498 13.063 13.8093 13.3828 13.6184 13.6039C13.5586 13.6738 13.515 13.756 13.4908 13.8448C13.4665 13.9335 13.4622 14.0265 13.4782 14.1171C13.9025 15.9318 14.4343 17.8383 15.003 19.5849C15.462 20.9944 15.6129 21.4727 16.2003 22.9216H16.3896Z" fill="white"/>
<path d="M16.9022 21.6155C16.7666 21.9822 16.6091 22.3855 16.3918 22.9212H16.2028C15.6622 21.5874 15.4913 21.0761 15.1094 19.9037C15.2946 18.3161 15.5395 16.4282 15.5395 16.3725C15.5356 16.2722 15.5204 16.1727 15.494 16.0759C15.4826 16.0316 15.4724 15.9873 15.4634 15.943C15.4145 15.7225 15.4055 15.6096 15.3487 15.3761L15.3452 15.3646C15.6178 14.997 15.9476 14.561 16.1486 14.335H16.4463C16.6456 14.5591 16.9714 14.9895 17.2428 15.3552C17.2274 15.3981 17.217 15.4266 17.217 15.4266C17.1583 15.5736 17.1116 15.7252 17.0776 15.8799C17.0161 16.0488 16.979 16.2256 16.9675 16.4051C16.9659 16.4984 17.2236 18.2887 17.4625 19.9728C17.2467 20.6362 17.0971 21.0883 16.9022 21.6155Z" fill="#3D8DCC"/>
<path d="M14.9288 22.88C13.8743 21.052 12.8319 19.2157 11.8593 17.3425C11.794 17.2167 11.7206 17.0915 11.6632 16.962C11.6389 16.9073 11.6388 16.9178 11.6804 16.8708C11.7303 16.8144 11.7834 16.7607 11.8361 16.7067C12.0508 16.4849 12.2752 16.2721 12.5005 16.0608C12.5225 16.0384 12.539 16.0112 12.549 15.9814C12.559 15.9516 12.562 15.92 12.558 15.8888C12.554 15.8577 12.543 15.8279 12.5258 15.8016C12.5086 15.7753 12.4857 15.7532 12.4588 15.7371L12.0409 15.4985L11.8415 15.3845C11.8052 15.3638 11.7687 15.3433 11.7325 15.3224L11.6962 15.3016C11.6655 15.2826 11.6678 15.2846 11.7031 15.3077L11.7312 15.4118C11.7198 15.4359 11.7181 15.4394 11.7265 15.4225C11.7315 15.4122 11.7367 15.4021 11.7421 15.3921C11.7513 15.3749 11.761 15.3577 11.7709 15.3406C11.794 15.3012 11.8189 15.2633 11.8449 15.2255C11.8959 15.1536 11.9509 15.0848 12.0098 15.0193C12.1579 14.8542 12.3164 14.6987 12.4844 14.5538C12.7949 14.2824 13.125 14.0343 13.4722 13.8117L13.1694 13.6885C13.4738 15.0379 13.8204 16.3769 14.2093 17.7055C14.5529 18.8836 14.9223 20.0568 15.3282 21.2151C15.536 21.8084 15.7662 22.3935 16.0023 22.976C16.0183 23.0278 16.0534 23.0716 16.1006 23.0983C16.1477 23.1251 16.2033 23.1329 16.256 23.12C16.3085 23.1052 16.353 23.0702 16.38 23.0228C16.4069 22.9753 16.4141 22.9191 16.3999 22.8664C15.9917 21.8584 15.6292 20.8392 15.2925 19.8056C14.866 18.4958 14.472 17.1771 14.1213 15.8444C13.9234 15.0926 13.7386 14.3373 13.567 13.5787C13.5583 13.5484 13.5429 13.5205 13.5218 13.4971C13.5008 13.4736 13.4747 13.4553 13.4455 13.4434C13.4164 13.4315 13.3849 13.4265 13.3535 13.4286C13.322 13.4307 13.2915 13.4399 13.2642 13.4555C12.7382 13.7848 12.253 14.1751 11.8187 14.6184C11.7115 14.7306 11.6116 14.8495 11.5196 14.9745C11.4324 15.0786 11.3665 15.1988 11.3254 15.3282C11.2718 15.5667 11.5023 15.6652 11.67 15.761L12.2513 16.0928L12.2096 15.7689C11.9994 15.9665 11.7902 16.1646 11.5884 16.3702C11.3909 16.5723 11.1418 16.7851 11.2728 17.0949C11.3766 17.3403 11.5165 17.5754 11.6402 17.8115C11.7694 18.0583 11.8999 18.3046 12.0316 18.5502C12.5556 19.5286 13.0957 20.4983 13.6434 21.4637C13.9511 22.0061 14.261 22.5473 14.573 23.0872C14.7056 23.317 15.062 23.1097 14.9291 22.8792L14.9288 22.88Z" fill="#211715"/>
<path d="M22.4373 24.1284C22.4518 22.7672 22.469 21.4059 22.4888 20.0447C22.4933 19.7664 22.4983 19.4881 22.5039 19.2098C22.5094 18.9444 22.097 18.9444 22.0915 19.2098C22.0658 20.4359 22.0532 21.6622 22.0391 22.8884C22.0343 23.3017 22.0298 23.7151 22.0254 24.1284C22.0226 24.3938 22.4349 24.394 22.4377 24.1284H22.4373Z" fill="#211715"/>
<path d="M15.6026 16.4074C16.0431 16.4074 16.4836 16.3981 16.9241 16.3979C16.9788 16.3979 17.0312 16.3762 17.0699 16.3375C17.1086 16.2989 17.1303 16.2464 17.1303 16.1918C17.1303 16.1371 17.1086 16.0846 17.0699 16.046C17.0312 16.0073 16.9788 15.9856 16.9241 15.9856C16.4836 15.9856 16.0431 15.9949 15.6026 15.995C15.548 15.995 15.4955 16.0168 15.4569 16.0554C15.4182 16.0941 15.3965 16.1465 15.3965 16.2012C15.3965 16.2559 15.4182 16.3083 15.4569 16.347C15.4955 16.3856 15.548 16.4074 15.6026 16.4074Z" fill="#211715"/>
<path d="M15.1496 15.4311C15.1914 15.6063 15.219 15.784 15.256 15.9602C15.2988 16.0968 15.3245 16.2382 15.3325 16.3811C15.327 16.5054 15.3035 16.6311 15.2882 16.7543C15.212 17.3712 15.1343 17.9879 15.0588 18.6048C15.0055 19.0396 14.9534 19.4745 14.9023 19.9094C14.9026 19.964 14.9245 20.0163 14.9631 20.0549C15.0016 20.0935 15.0539 20.1153 15.1085 20.1156C15.1628 20.1143 15.2145 20.0922 15.2529 20.0538C15.2913 20.0154 15.3134 19.9637 15.3147 19.9094C15.4023 19.1587 15.4934 18.4085 15.588 17.6589C15.6402 17.2388 15.7168 16.8142 15.7439 16.3916C15.7415 16.238 15.7175 16.0856 15.6726 15.9387C15.6266 15.7339 15.5959 15.5264 15.5472 15.322C15.4856 15.0643 15.088 15.1732 15.1496 15.4316V15.4311Z" fill="#211715"/>
<path d="M17.6482 19.8356C17.5451 19.1076 17.4418 18.3796 17.3382 17.6515C17.2998 17.3786 17.2618 17.1056 17.2244 16.8326C17.2225 16.8186 17.2153 16.7648 17.2165 16.7736C17.218 16.7852 17.2108 16.7315 17.2095 16.7221C17.2043 16.6824 17.1991 16.6427 17.194 16.6029C17.1871 16.549 17.1788 16.4948 17.1747 16.4407C17.172 16.3256 17.189 16.2109 17.2252 16.1016C17.2668 15.9075 17.3232 15.7169 17.3936 15.5313C17.4196 15.4838 17.4265 15.4281 17.4127 15.3756C17.399 15.3231 17.3657 15.2779 17.3197 15.2493C17.2724 15.2221 17.2163 15.2146 17.1635 15.2285C17.1107 15.2423 17.0655 15.2763 17.0377 15.3232C16.9685 15.499 16.9111 15.6791 16.8659 15.8625C16.8019 16.0377 16.7661 16.222 16.7598 16.4084C16.7675 16.5232 16.7812 16.6376 16.8009 16.751C16.8825 17.364 16.9706 17.9763 17.0576 18.5887C17.1218 19.0411 17.1861 19.4935 17.2504 19.9459C17.2653 19.9984 17.3002 20.043 17.3477 20.07C17.3952 20.0969 17.4514 20.1041 17.5041 20.0899C17.556 20.0742 17.5999 20.0391 17.6267 19.9919C17.6535 19.9447 17.6612 19.889 17.6481 19.8363L17.6482 19.8356Z" fill="#211715"/>
<path d="M18.0192 23.088C19.1224 21.1758 20.2131 19.2544 21.2228 17.2908C21.2989 17.1427 21.3892 16.9948 21.3487 16.8216C21.3143 16.6734 21.1912 16.5652 21.09 16.4597C20.8619 16.2217 20.6229 15.9947 20.3826 15.7693L20.3409 16.0931L20.9226 15.7613C21.0902 15.6655 21.3208 15.5671 21.2672 15.3286C21.226 15.1992 21.16 15.0791 21.073 14.9749C20.981 14.8499 20.8811 14.7309 20.7739 14.6188C20.3396 14.1755 19.8544 13.7852 19.3284 13.4559C19.3011 13.4402 19.2706 13.431 19.2391 13.4289C19.2077 13.4268 19.1762 13.4319 19.1471 13.4438C19.1179 13.4556 19.0918 13.474 19.0708 13.4974C19.0497 13.5209 19.0343 13.5488 19.0256 13.579C18.7213 14.9285 18.3746 16.2675 17.9857 17.596C17.6421 18.7742 17.2728 19.9474 16.8668 21.1056C16.659 21.699 16.4287 22.2841 16.1927 22.8666C16.1785 22.9193 16.1857 22.9755 16.2126 23.0229C16.2395 23.0704 16.2841 23.1054 16.3366 23.1202C16.3893 23.1334 16.4451 23.1258 16.4923 23.099C16.5395 23.0722 16.5746 23.0282 16.5903 22.9762C16.9985 21.9682 17.3611 20.949 17.6977 19.9154C18.1241 18.6056 18.5181 17.2865 18.8689 15.9542C19.0669 15.2023 19.2517 14.4471 19.4232 13.6885L19.1204 13.8117C19.4675 14.0344 19.7977 14.2824 20.1082 14.5538C20.2724 14.6956 20.4277 14.8474 20.5732 15.0084C20.6356 15.0772 20.6939 15.1497 20.7477 15.2254C20.7714 15.2598 20.7943 15.2941 20.8156 15.3302C20.8277 15.3505 20.8394 15.371 20.8505 15.3919L20.861 15.4121C20.8744 15.4393 20.8744 15.4391 20.861 15.4115L20.8891 15.3075C20.921 15.2867 20.9268 15.2825 20.9063 15.295C20.8909 15.3044 20.8753 15.3135 20.8594 15.3221C20.8232 15.343 20.7867 15.3636 20.7504 15.3843L20.5505 15.4984L20.1327 15.7369C20.1058 15.7531 20.0829 15.7751 20.0657 15.8014C20.0485 15.8277 20.0375 15.8575 20.0334 15.8887C20.0294 15.9198 20.0325 15.9515 20.0425 15.9813C20.0524 16.0111 20.069 16.0382 20.091 16.0607C20.2912 16.2485 20.4905 16.4373 20.6837 16.6328C20.7319 16.6817 20.7798 16.7311 20.8272 16.7808C20.8593 16.8146 20.9225 16.8581 20.9393 16.901C20.9613 16.957 20.8568 17.1027 20.8226 17.1693C20.583 17.6337 20.3391 18.0958 20.0908 18.5555C19.5868 19.4916 19.071 20.4212 18.5433 21.3444C18.2519 21.8574 17.9587 22.3693 17.6635 22.8801C17.5307 23.1104 17.8869 23.3182 18.0196 23.0882L18.0192 23.088Z" fill="#211715"/>
<path d="M18.2014 12.9904C18.3143 13.1179 18.4211 13.2506 18.5278 13.3834C18.6268 13.5065 18.737 13.625 18.83 13.7524C18.8684 13.8053 18.8958 13.8653 18.9106 13.929C18.9164 13.9517 18.9198 13.9751 18.9207 13.9986C18.9211 14.0122 18.9087 14.0863 18.9245 14.0455C18.904 14.0888 18.88 14.1302 18.8525 14.1693C18.6256 14.547 18.3714 14.9077 18.092 15.2484C18.0028 15.356 17.9102 15.4611 17.811 15.5597C17.768 15.6021 17.7243 15.6434 17.6785 15.6826C17.6454 15.7132 17.6093 15.7402 17.5707 15.7634L17.8528 15.8373C17.439 15.2849 17.0494 14.7072 16.5917 14.1895L16.55 14.5133C16.7905 14.3415 17.0188 14.151 17.2512 13.9688C17.5795 13.7111 17.9075 13.4531 18.235 13.1946C18.3209 13.1267 18.4076 13.0593 18.4927 12.9904C18.531 12.9516 18.5525 12.8992 18.5525 12.8447C18.5525 12.7901 18.531 12.7377 18.4927 12.6989C18.4534 12.6614 18.4012 12.6405 18.3469 12.6405C18.2926 12.6405 18.2404 12.6614 18.2011 12.6989C17.6685 13.1284 17.1274 13.5474 16.5878 13.9679L16.4889 14.0452L16.4459 14.0787C16.4191 14.0996 16.4796 14.0529 16.4401 14.0832C16.4075 14.1082 16.3753 14.1337 16.342 14.1575C16.3154 14.1739 16.2927 14.1961 16.2758 14.2224C16.2588 14.2486 16.2479 14.2784 16.2439 14.3094C16.2399 14.3405 16.2429 14.372 16.2526 14.4017C16.2624 14.4315 16.2787 14.4587 16.3003 14.4813C16.7347 14.9728 17.104 15.5213 17.4968 16.0457C17.5252 16.0921 17.5704 16.1257 17.623 16.1395C17.6756 16.1533 17.7315 16.1462 17.7789 16.1197C18.2227 15.8295 18.552 15.3504 18.8508 14.9227C18.9752 14.7446 19.0957 14.5633 19.2086 14.3777C19.2405 14.3289 19.2688 14.2778 19.2932 14.2249C19.3238 14.1362 19.3365 14.0422 19.3304 13.9486C19.3244 13.8549 19.2998 13.7634 19.258 13.6794C19.178 13.4947 19.0253 13.348 18.9003 13.1927C18.7665 13.0267 18.6346 12.8588 18.493 12.6992C18.3165 12.5 18.0258 12.7924 18.2014 12.9904Z" fill="#211715"/>
<path d="M14.0986 12.6989C13.9733 12.8402 13.8556 12.988 13.7379 13.1352C13.6262 13.2744 13.4962 13.4076 13.3979 13.5565C13.3188 13.6679 13.2727 13.7994 13.2649 13.9358C13.257 14.0722 13.2878 14.208 13.3536 14.3277C13.6019 14.7458 13.882 15.1442 14.1913 15.5193C14.3672 15.7496 14.5768 15.9519 14.8132 16.1194C14.8607 16.1457 14.9165 16.1527 14.969 16.1389C15.0215 16.1252 15.0668 16.0917 15.0953 16.0455C15.4881 15.5211 15.8574 14.9726 16.2918 14.4811C16.3134 14.4584 16.3297 14.4312 16.3394 14.4015C16.3491 14.3718 16.3521 14.3402 16.3481 14.3092C16.3441 14.2782 16.3332 14.2484 16.3163 14.2221C16.2993 14.1958 16.2767 14.1737 16.2501 14.1572C16.2238 14.1385 16.1985 14.1186 16.1728 14.0989C16.1628 14.0913 16.1529 14.0837 16.1431 14.0761C16.1173 14.0565 16.1782 14.1034 16.1409 14.0744C16.1124 14.0523 16.0839 14.0302 16.055 14.0079C15.9051 13.8913 15.7555 13.7744 15.6063 13.6571C15.2844 13.4046 14.963 13.1516 14.6419 12.8981C14.558 12.8318 14.4735 12.7661 14.3903 12.6989C14.3509 12.6617 14.2987 12.641 14.2445 12.641C14.1903 12.641 14.1381 12.6617 14.0986 12.6989C14.0603 12.7378 14.039 12.7901 14.039 12.8447C14.039 12.8992 14.0604 12.9516 14.0987 12.9905C14.6375 13.4252 15.1855 13.8494 15.7317 14.2748C15.8348 14.3548 15.9357 14.4375 16.0417 14.5133L15.9999 14.1895C15.5423 14.7072 15.1526 15.2849 14.7389 15.8373L15.021 15.7634C15.0027 15.7514 14.9848 15.7391 14.967 15.7264C14.9492 15.7138 14.9661 15.7264 14.9694 15.7289C14.9585 15.7203 14.9479 15.7117 14.9374 15.7032C14.8949 15.6679 14.854 15.6308 14.8142 15.5926C14.7276 15.5093 14.6463 15.4208 14.5679 15.3294C14.4076 15.1433 14.2603 14.9467 14.1191 14.746C13.9982 14.5742 13.8816 14.3995 13.7709 14.2211C13.7397 14.1709 13.7088 14.1204 13.6797 14.0688C13.6755 14.0622 13.6718 14.0553 13.6685 14.0481C13.6777 14.071 13.6711 14.0523 13.6711 14.0292C13.6702 13.9708 13.6807 13.9127 13.7021 13.8583C13.7651 13.7023 13.9135 13.5706 14.0175 13.4412C14.1396 13.2892 14.2609 13.1365 14.3903 12.9905C14.5657 12.7925 14.2751 12.4999 14.0986 12.6989Z" fill="#211715"/>
<path d="M14.3574 12.6481V12.9771C14.358 13.0317 14.3795 13.084 14.4176 13.1232C14.4562 13.1618 14.5086 13.1835 14.5633 13.1835C14.618 13.1835 14.6704 13.1618 14.7091 13.1232C14.747 13.0839 14.7685 13.0317 14.7692 12.9771V12.6481C14.7687 12.5935 14.7471 12.5412 14.7091 12.502C14.6704 12.4634 14.618 12.4417 14.5633 12.4417C14.5086 12.4417 14.4562 12.4634 14.4176 12.502C14.3797 12.5413 14.3582 12.5935 14.3574 12.6481Z" fill="#211715"/>
<path d="M17.8516 12.628V12.9679C17.8521 13.0225 17.8737 13.0748 17.9117 13.114C17.9504 13.1526 18.0028 13.1743 18.0575 13.1743C18.1121 13.1743 18.1646 13.1526 18.2032 13.114C18.2411 13.0747 18.2626 13.0225 18.2634 12.9679V12.949C18.2628 12.8945 18.2413 12.8422 18.2032 12.803C18.1646 12.7644 18.1121 12.7426 18.0575 12.7426C18.0028 12.7426 17.9504 12.7644 17.9117 12.803C17.8738 12.8422 17.8523 12.8945 17.8516 12.949V12.9679C17.8521 13.0225 17.8737 13.0748 17.9117 13.114C17.9504 13.1526 18.0028 13.1743 18.0575 13.1743C18.1121 13.1743 18.1646 13.1526 18.2032 13.114C18.2411 13.0747 18.2626 13.0225 18.2634 12.9679V12.628C18.2628 12.5735 18.2412 12.5212 18.2032 12.482C18.1646 12.4433 18.1121 12.4216 18.0575 12.4216C18.0028 12.4216 17.9504 12.4433 17.9117 12.482C17.8738 12.5213 17.8523 12.5735 17.8516 12.628Z" fill="#211715"/>
<path d="M26.4585 23.7867C26.3836 22.8749 26.2458 21.9694 26.0462 21.0766C25.8502 20.1661 25.6534 19.2533 25.3734 18.364C25.1336 17.6024 24.8402 16.8531 24.2781 16.2693C23.6788 15.6469 22.9009 15.2141 22.1286 14.8445C21.4878 14.5378 20.8309 14.2706 20.1701 14.0112C20.1174 13.9971 20.0612 14.0043 20.0138 14.0312C19.9663 14.0582 19.9314 14.1028 19.9165 14.1553C19.9033 14.208 19.9108 14.2637 19.9377 14.311C19.9645 14.3582 20.0085 14.3933 20.0605 14.4089C20.5746 14.6108 21.0851 14.817 21.5882 15.0458C22.3537 15.3941 23.1344 15.7827 23.7654 16.348C24.0385 16.586 24.2707 16.8673 24.4525 17.1806C24.6321 17.5136 24.7801 17.8627 24.8947 18.2233C25.1898 19.0966 25.3909 19.9985 25.5866 20.8981C25.8073 21.8491 25.961 22.8144 26.0465 23.7869C26.0478 23.8412 26.0699 23.8929 26.1083 23.9313C26.1467 23.9697 26.1984 23.9918 26.2527 23.9931C26.3072 23.9927 26.3594 23.9708 26.398 23.9322C26.4365 23.8937 26.4584 23.8415 26.4588 23.7869L26.4585 23.7867Z" fill="#211715"/>
<path d="M19.8126 16.6903C19.752 16.6891 19.6918 16.7 19.6356 16.7226C19.5794 16.7451 19.5283 16.7787 19.4853 16.8214C19.4424 16.8641 19.4084 16.915 19.3855 16.971C19.3627 17.0271 19.3513 17.0872 19.3521 17.1478C19.349 17.2093 19.3587 17.2709 19.3807 17.3285C19.4027 17.386 19.4364 17.4384 19.4797 17.4823C19.523 17.5261 19.5749 17.5605 19.6323 17.5832C19.6896 17.6058 19.751 17.6163 19.8126 17.614C19.8743 17.617 19.9361 17.607 19.9937 17.5846C20.0513 17.5622 20.1036 17.5279 20.1471 17.4839C20.1905 17.4399 20.2242 17.3872 20.2459 17.3293C20.2676 17.2714 20.2768 17.2095 20.273 17.1478C20.2739 17.0872 20.2625 17.0271 20.2397 16.971C20.2168 16.9149 20.1829 16.864 20.1399 16.8213C20.0969 16.7786 20.0458 16.745 19.9896 16.7225C19.9333 16.7 19.8731 16.689 19.8126 16.6903Z" fill="#FEBE69"/>
<path d="M19.8124 16.4842C19.6704 16.4841 19.532 16.5293 19.4174 16.6132C19.3028 16.6971 19.2179 16.8153 19.175 16.9507C19.135 17.0801 19.1344 17.2186 19.1733 17.3483C19.2123 17.4781 19.289 17.5933 19.3937 17.6794C19.503 17.761 19.6336 17.8094 19.7698 17.8185C19.906 17.8277 20.0419 17.7972 20.1612 17.7309C20.2776 17.6581 20.3691 17.5517 20.4237 17.4258C20.4783 17.2998 20.4933 17.1603 20.4669 17.0256C20.4386 16.8729 20.3576 16.7349 20.238 16.6359C20.1183 16.5369 19.9677 16.4831 19.8124 16.4839C19.7577 16.4839 19.7053 16.5056 19.6666 16.5443C19.628 16.5829 19.6063 16.6354 19.6063 16.6901C19.6063 16.7447 19.628 16.7972 19.6666 16.8358C19.7053 16.8745 19.7577 16.8962 19.8124 16.8962C19.8258 16.8962 19.8391 16.8974 19.8524 16.8978C19.8987 16.8989 19.8049 16.8866 19.849 16.8971C19.8694 16.902 19.8896 16.9057 19.9097 16.9125C19.917 16.9162 19.9247 16.9191 19.9327 16.9211L19.9058 16.9098C19.9131 16.913 19.9203 16.9166 19.9274 16.9203C19.9477 16.9307 19.967 16.949 19.9876 16.9579C19.9466 16.9401 19.9643 16.9392 19.9819 16.9555C19.9876 16.9608 19.9931 16.9662 19.9986 16.9718C20.0054 16.9812 20.0133 16.9898 20.0219 16.9976C19.9934 16.9804 20 16.9654 20.0142 16.9883C20.0255 17.0066 20.0361 17.0248 20.0467 17.0435C20.0553 17.0591 20.0483 17.0678 20.0402 17.0264C20.0431 17.0412 20.0514 17.0563 20.0556 17.071C20.061 17.0898 20.0618 17.1115 20.0685 17.1295C20.0522 17.0854 20.0656 17.0952 20.0656 17.1171C20.0656 17.1273 20.0667 17.1376 20.0667 17.1478C20.0638 17.1686 20.0627 17.1896 20.0634 17.2106L20.0676 17.1799C20.0664 17.1878 20.065 17.1957 20.0635 17.2036C20.0608 17.217 20.0576 17.2303 20.0538 17.2435C20.0512 17.2527 20.0484 17.2619 20.0452 17.2709L20.0413 17.2816C20.0332 17.3018 20.0358 17.2957 20.049 17.2634C20.0392 17.279 20.0304 17.2952 20.0226 17.3118C20.0178 17.3194 20.0119 17.3266 20.0073 17.3343C19.9941 17.3569 20.0429 17.2945 20.0159 17.3222C20.0018 17.3367 19.9821 17.3515 19.9696 17.3672C19.9978 17.3316 19.9968 17.3474 19.9765 17.3608C19.9704 17.3649 19.9642 17.3687 19.9578 17.3724C19.9483 17.378 19.9383 17.3828 19.9286 17.3882C19.8943 17.4071 19.9676 17.3763 19.9418 17.383C19.9213 17.3882 19.9016 17.3967 19.8808 17.4016C19.873 17.4034 19.8652 17.4047 19.8573 17.4065C19.8352 17.4101 19.8414 17.4094 19.8759 17.4044C19.8673 17.4053 19.8592 17.406 19.8509 17.4066C19.8297 17.408 19.8083 17.4082 19.7871 17.4073C19.7748 17.4053 19.7625 17.4043 19.7501 17.4043C19.7541 17.4037 19.8016 17.4142 19.769 17.4062C19.7479 17.4011 19.727 17.3969 19.7064 17.39C19.6978 17.387 19.6885 17.3823 19.6794 17.3802C19.7337 17.3931 19.7013 17.3893 19.6828 17.3791C19.6643 17.369 19.649 17.356 19.6313 17.3462C19.673 17.3693 19.6587 17.3688 19.6473 17.3576C19.6394 17.3498 19.6311 17.3427 19.6234 17.3347C19.6171 17.3283 19.6116 17.3203 19.6049 17.3143C19.5855 17.2971 19.6345 17.3584 19.6135 17.3254C19.6013 17.3062 19.5902 17.2871 19.5791 17.2672C19.5588 17.2306 19.5947 17.3145 19.5817 17.2742C19.5794 17.2668 19.5765 17.2595 19.5741 17.252C19.5708 17.2281 19.5652 17.2046 19.5576 17.1817C19.5596 17.1853 19.562 17.2347 19.5603 17.1994C19.5596 17.1866 19.5584 17.1736 19.5582 17.161C19.5582 17.1504 19.5582 17.1399 19.5582 17.1294C19.5582 17.1233 19.5587 17.1172 19.5592 17.1111C19.5614 17.0887 19.5603 17.095 19.556 17.1299C19.5638 17.1082 19.5651 17.0826 19.5722 17.0604C19.577 17.0496 19.581 17.0384 19.5841 17.027C19.5812 17.0483 19.5661 17.0657 19.583 17.0338C19.5935 17.0138 19.6107 16.9952 19.6202 16.9748C19.6006 17.0172 19.602 16.9976 19.6175 16.9807C19.6254 16.9721 19.6337 16.9636 19.6422 16.956C19.6593 16.9399 19.6776 16.9401 19.6364 16.9583C19.6466 16.9523 19.6563 16.9456 19.6656 16.9383C19.6757 16.9319 19.6861 16.926 19.6966 16.9205C19.7038 16.9167 19.7109 16.9133 19.7182 16.91L19.6914 16.9213C19.7159 16.9168 19.7398 16.9096 19.7627 16.8999L19.7751 16.8974C19.7975 16.8938 19.792 16.8944 19.7587 16.8992C19.7766 16.9007 19.7945 16.8997 19.8121 16.8965C19.8667 16.8965 19.9192 16.8747 19.9578 16.8361C19.9965 16.7974 20.0182 16.745 20.0182 16.6903C20.0182 16.6356 19.9965 16.5832 19.9578 16.5445C19.9192 16.5059 19.8667 16.4842 19.8121 16.4842H19.8124Z" fill="#211715"/>
<path d="M8.24597 17.0062C8.64867 16.3999 9.26079 15.9652 9.88459 15.6095C10.5466 15.2375 11.2345 14.9135 11.9428 14.64L12.5319 14.4086C12.5839 14.3928 12.6278 14.3577 12.6546 14.3106C12.6815 14.2634 12.6892 14.2078 12.6763 14.155C12.6615 14.1025 12.6265 14.058 12.5791 14.031C12.5316 14.004 12.4755 13.9969 12.4227 14.011C11.9273 14.2056 11.4349 14.404 10.9486 14.6209C10.1784 14.9645 9.41532 15.3461 8.75235 15.8736C8.41851 16.1348 8.12764 16.4467 7.89035 16.7979C7.7432 17.0196 8.10011 17.2264 8.2464 17.0061L8.24597 17.0062Z" fill="#211715"/>
<path d="M10.0469 19.2093C10.0735 20.3432 10.0898 21.4781 10.1065 22.6125C10.1256 23.9027 10.1428 25.1929 10.158 26.4831C10.1638 26.9571 10.1687 27.4311 10.173 27.9051C10.1751 28.1702 10.5874 28.1709 10.5853 27.9051C10.5772 26.9063 10.5638 25.9076 10.5509 24.9089C10.5338 23.5811 10.5143 22.2532 10.4924 20.9254C10.4828 20.3533 10.4728 19.7813 10.4594 19.2093C10.4531 18.9444 10.0408 18.9434 10.047 19.2093H10.0469Z" fill="#211715"/>
<path d="M5.35961 19.773C5.40181 20.6102 5.45622 21.4465 5.52282 22.2821C5.59308 23.1761 5.66704 24.0696 5.79675 24.9572C5.90241 25.6801 6.09637 26.43 6.53832 27.0251C6.74895 27.3188 7.01822 27.5656 7.32911 27.75C7.63658 27.917 7.97551 28.0181 8.32426 28.0468C9.08378 28.1271 9.92199 27.9215 10.442 27.3328C10.6171 27.1347 10.3266 26.8419 10.1505 27.0413C9.73662 27.51 9.1062 27.6757 8.49846 27.6477C8.20474 27.6409 7.91544 27.5746 7.64806 27.4528C7.36001 27.3077 7.10877 27.0989 6.91336 26.8423C6.49245 26.3006 6.31129 25.6054 6.20795 24.9386C6.07996 24.1127 6.01433 23.2783 5.94802 22.4457C5.87707 21.5555 5.8184 20.6646 5.77201 19.773C5.7587 19.5089 5.34621 19.5073 5.35961 19.773Z" fill="#211715"/>
<path d="M9.66673 16.7709C9.59912 17.2386 9.24719 17.7938 9.07557 18.0262C9.00875 18.1192 8.93403 18.2063 8.85223 18.2864C8.67579 18.4547 8.69993 18.6815 8.66643 18.9392C8.64822 19.0797 8.66291 19.2074 8.65483 19.3086C8.15988 19.4831 6.78308 19.6061 6.1433 19.6712C6.04821 19.3827 5.66768 18.5516 5.62249 18.5071C5.22555 18.1155 4.77149 17.1561 4.72656 16.2307L4.74331 15.8887C4.74933 15.7658 4.84699 15.4239 5.09481 15.3594C5.19011 15.3357 5.29037 15.342 5.38197 15.3773C5.47357 15.4127 5.55207 15.4754 5.60677 15.5569C5.63761 15.4109 5.67111 15.2528 5.67111 15.2528C5.70099 15.1533 5.75863 15.0644 5.83725 14.9965C5.91588 14.9286 6.01225 14.8845 6.11504 14.8695C6.32257 14.8367 6.40375 14.9679 6.50846 15.1088C6.50846 14.9322 6.58216 14.7254 6.74331 14.6405C6.99096 14.5099 7.47655 14.5054 7.46899 15.0639C7.33696 14.1128 7.19093 12.952 7.1875 12.693C7.19331 12.5509 7.24819 12.4151 7.34279 12.3089C7.43739 12.2026 7.56588 12.1324 7.70641 12.1101C7.99426 12.0758 8.29474 12.4987 8.32781 12.6848C8.48638 13.5767 8.57975 14.2224 8.70405 15.3039C8.86984 15.3441 9.02781 15.3891 9.20459 15.4379C9.34722 15.4889 9.4682 15.5871 9.54758 15.7161C9.71079 16.0734 9.768 16.3896 9.66664 16.7708L9.66673 16.7709Z" fill="white"/>
<path d="M8.89912 15.2195C8.8152 14.4971 8.72036 13.7764 8.59959 13.0588C8.58198 12.8975 8.55275 12.7377 8.51214 12.5806C8.46495 12.4487 8.39371 12.3268 8.30203 12.221C8.08728 11.9585 7.78054 11.8244 7.45687 11.971C7.31525 12.0365 7.19523 12.141 7.11085 12.2722C7.02648 12.4034 6.98125 12.556 6.98047 12.712C6.98382 12.855 7.00229 12.9985 7.01749 13.1405C7.07066 13.6382 7.1356 14.1347 7.202 14.6306C7.27175 15.1517 7.34159 15.6731 7.42534 16.1921C7.44021 16.2446 7.47515 16.2892 7.5226 16.3161C7.57006 16.3431 7.62621 16.3502 7.67892 16.3361C7.73093 16.3205 7.77493 16.2854 7.80176 16.2382C7.82859 16.1909 7.83618 16.1352 7.82297 16.0825C7.68167 15.2093 7.56914 14.3402 7.46589 13.4626C7.44501 13.2847 7.42466 13.1066 7.40825 12.9282C7.39682 12.8048 7.37105 12.6689 7.42345 12.5542C7.44731 12.5016 7.48161 12.4544 7.52427 12.4154C7.56693 12.3765 7.61706 12.3466 7.67162 12.3277C7.69001 12.3187 7.71013 12.3139 7.73057 12.3136C7.75102 12.3132 7.77129 12.3173 7.78999 12.3256C7.82838 12.3436 7.8643 12.3665 7.89684 12.3936C7.98631 12.4705 8.05817 12.5657 8.10756 12.6728C8.11804 12.6955 8.10953 12.6767 8.10756 12.6721C8.11091 12.6807 8.11426 12.6899 8.11683 12.699C8.12405 12.7248 8.12886 12.7494 8.13401 12.7755C8.14965 12.8618 8.16442 12.9483 8.17928 13.0347C8.30384 13.76 8.40193 14.4886 8.4868 15.2196C8.4884 15.2738 8.51063 15.3253 8.54895 15.3637C8.58728 15.402 8.63879 15.4242 8.69296 15.4258C8.74754 15.4255 8.79979 15.4037 8.83839 15.3651C8.87698 15.3265 8.8988 15.2742 8.89912 15.2196V15.2195Z" fill="#211715"/>
<path d="M5.78277 15.4514C5.69152 15.3171 5.55384 15.2214 5.39622 15.1825C5.2413 15.1496 5.07983 15.1694 4.93743 15.2387C4.83471 15.2975 4.7464 15.3784 4.67895 15.4757C4.6115 15.5729 4.5666 15.684 4.54753 15.8008C4.51278 16.0661 4.53379 16.3358 4.60921 16.5925C4.64128 16.7507 4.70828 16.8999 4.80532 17.0289C4.89543 17.1316 5.01653 17.2021 5.15029 17.2298C5.46735 17.2914 5.76739 17.0891 5.90664 16.8115C5.93293 16.764 5.93991 16.7082 5.92614 16.6557C5.91237 16.6032 5.8789 16.558 5.83268 16.5295C5.78534 16.5024 5.72926 16.495 5.67651 16.5088C5.62376 16.5227 5.57854 16.5566 5.55058 16.6035C5.53313 16.6393 5.51324 16.6739 5.49105 16.707C5.5109 16.6779 5.47868 16.7203 5.47001 16.7291C5.46314 16.7359 5.42113 16.7707 5.44424 16.7538C5.4055 16.782 5.3641 16.8064 5.32063 16.8266C5.35181 16.8122 5.31341 16.8266 5.3007 16.8306C5.29718 16.8317 5.26797 16.8348 5.29134 16.8326C5.3147 16.8305 5.27596 16.8317 5.27184 16.8316C5.2623 16.8316 5.25285 16.8311 5.24332 16.8302C5.28069 16.8337 5.24865 16.8308 5.24091 16.8283C5.22219 16.8222 5.20286 16.8184 5.18456 16.8111C5.21394 16.8232 5.17082 16.801 5.16232 16.7968C5.16232 16.7968 5.13388 16.7789 5.15003 16.7902C5.16378 16.7998 5.13474 16.7772 5.13182 16.7743C5.12392 16.7667 5.09549 16.7349 5.10073 16.7421C5.10597 16.7493 5.08355 16.7118 5.07874 16.7019C5.05607 16.6484 5.03719 16.5934 5.02221 16.5373C4.9653 16.353 4.93961 16.1604 4.94619 15.9676C4.94619 15.9479 4.94765 15.9281 4.94808 15.9085C4.94877 15.8733 4.95392 15.8792 4.94516 15.9106C4.95427 15.8778 4.95916 15.8445 4.97016 15.812C4.97488 15.7981 4.98889 15.7651 4.97463 15.797C4.98207 15.7802 4.99015 15.7637 4.99885 15.7475C5.00744 15.7308 5.01749 15.7144 5.02788 15.6985C5.03312 15.6904 5.03862 15.6825 5.0442 15.6746C5.06302 15.6489 5.02591 15.6941 5.04824 15.6707C5.05683 15.6613 5.06611 15.6517 5.07521 15.6423C5.07762 15.6398 5.10588 15.6147 5.09136 15.6263C5.08441 15.6319 5.12452 15.6056 5.13646 15.5992C5.13302 15.601 5.11069 15.6086 5.13345 15.6002C5.14709 15.5954 5.16097 15.5914 5.17503 15.5881C5.19203 15.5824 5.20984 15.5795 5.22777 15.5795C5.2682 15.5741 5.30935 15.58 5.34657 15.5967C5.37751 15.6117 5.40489 15.6332 5.42689 15.6596C5.45566 15.7055 5.50086 15.7387 5.55328 15.7525C5.60569 15.7662 5.66138 15.7595 5.70898 15.7336C5.75593 15.7057 5.79002 15.6605 5.80386 15.6077C5.8177 15.5549 5.81019 15.4988 5.78294 15.4515L5.78277 15.4514Z" fill="#211715"/>
<path d="M6.68419 15.0048C6.61016 14.8806 6.50561 14.7773 6.38045 14.7049C6.29816 14.6722 6.20975 14.6578 6.12133 14.6627C6.03292 14.6675 5.94662 14.6915 5.8684 14.733C5.73524 14.7964 5.62314 14.8968 5.5455 15.0221C5.4754 15.1551 5.43617 15.3021 5.43074 15.4523C5.39385 15.7891 5.41827 16.1298 5.50281 16.458C5.52795 16.5766 5.57142 16.6906 5.63166 16.7958C5.73062 16.9431 5.88274 17.0465 6.05618 17.0842C6.38912 17.1552 6.83262 16.9246 6.87866 16.5668C6.87839 16.5122 6.85659 16.4599 6.81798 16.4213C6.77938 16.3827 6.7271 16.3609 6.6725 16.3606C6.61824 16.3619 6.56656 16.3841 6.52818 16.4225C6.48979 16.4608 6.46765 16.5125 6.46635 16.5668C6.47588 16.4927 6.48103 16.5225 6.45862 16.5487C6.44138 16.5682 6.42224 16.5859 6.40149 16.6017C6.36639 16.6269 6.32927 16.6491 6.29051 16.6682C6.24 16.688 6.18462 16.6917 6.13193 16.6789C6.07923 16.666 6.03178 16.6372 5.99605 16.5964C5.97739 16.5735 5.96286 16.5476 5.9531 16.5197C5.93394 16.4677 5.91762 16.4147 5.90362 16.3612C5.87096 16.2371 5.84892 16.1105 5.83773 15.9827C5.82346 15.8244 5.82332 15.6651 5.8373 15.5068C5.84384 15.4347 5.85532 15.3632 5.87166 15.2926C5.87476 15.2816 5.87828 15.2707 5.8824 15.26C5.87493 15.2777 5.87458 15.2798 5.88128 15.266C5.89244 15.2441 5.90527 15.2231 5.91968 15.2032C5.90516 15.2222 5.94373 15.178 5.9476 15.1742C6.00119 15.1204 6.07028 15.0847 6.14517 15.0721C6.15993 15.0677 6.17561 15.0673 6.19056 15.0711C6.2055 15.0749 6.21915 15.0826 6.23004 15.0935C6.2673 15.1295 6.30039 15.1695 6.32865 15.2129C6.35736 15.2589 6.40257 15.2922 6.45501 15.3059C6.50745 15.3197 6.56316 15.3129 6.61074 15.2869C6.65764 15.259 6.69168 15.2138 6.70552 15.161C6.71936 15.1082 6.71188 15.0521 6.6847 15.0048H6.68419Z" fill="#211715"/>
<path d="M7.5099 14.561C7.2985 14.3228 6.93712 14.3199 6.66611 14.4486C6.3908 14.5795 6.27415 14.9148 6.30585 15.2025C6.34132 15.5246 6.39707 15.8455 6.46047 16.163C6.48907 16.3053 6.50479 16.4472 6.60976 16.5559C6.71849 16.6645 6.85753 16.7376 7.00859 16.7656C7.10576 16.7845 7.20587 16.7819 7.30196 16.7582C7.39806 16.7345 7.48783 16.6901 7.56505 16.6282C7.65413 16.5417 7.7266 16.4396 7.77885 16.3269C7.91165 16.0967 7.55551 15.8888 7.42288 16.1189C7.39918 16.1599 7.37882 16.2029 7.35417 16.2437C7.35004 16.2506 7.30769 16.3089 7.33192 16.2801C7.32642 16.2867 7.27677 16.3323 7.29756 16.3171C7.25509 16.3455 7.20589 16.3623 7.15491 16.3656C7.10393 16.369 7.05296 16.3589 7.00713 16.3363C6.97556 16.3223 6.94587 16.3045 6.91874 16.2831C6.93008 16.2904 6.92656 16.2866 6.90835 16.2717C6.89117 16.2526 6.88971 16.2522 6.90397 16.2704C6.89177 16.249 6.8926 16.2524 6.90646 16.2807C6.90268 16.2641 6.89896 16.2475 6.89529 16.2309C6.88744 16.1954 6.87986 16.1598 6.87253 16.1242C6.84135 15.9743 6.81334 15.8236 6.78757 15.6729C6.76378 15.5338 6.74119 15.3944 6.72401 15.2544C6.69949 15.143 6.70937 15.0268 6.75235 14.9211C6.77504 14.8819 6.80626 14.8484 6.84371 14.823C6.88115 14.7976 6.92384 14.781 6.9686 14.7744C7.01337 14.7678 7.05904 14.7714 7.10223 14.7849C7.14541 14.7984 7.18499 14.8214 7.21801 14.8524C7.39454 15.0512 7.68531 14.7587 7.50956 14.5608L7.5099 14.561Z" fill="#211715"/>
<path d="M8.72162 16.3086C8.51796 16.2288 8.27374 16.1531 8.09885 16.0179C8.02484 15.9555 7.97202 15.8717 7.94767 15.778C7.9309 15.7218 7.93198 15.6618 7.95076 15.6062C8.00771 15.4769 8.16139 15.4287 8.31755 15.4378C8.56829 15.4524 8.83157 15.5432 9.07149 15.6137C9.15964 15.6353 9.24089 15.6789 9.30771 15.7403C9.37454 15.8017 9.42477 15.879 9.45374 15.965C9.52893 16.1567 9.54619 16.3662 9.50339 16.5675C9.40183 17.023 9.21532 17.4553 8.95364 17.8417C8.81147 18.0552 8.58822 18.2095 8.51976 18.4659C8.44726 18.7379 8.46453 19.0309 8.44855 19.3087L8.5999 19.11C8.23054 19.2376 7.82432 19.2789 7.4382 19.3269C7.00733 19.3804 6.57517 19.4214 6.14318 19.4652L6.34204 19.6165C6.20646 19.2239 6.03986 18.8427 5.84382 18.4765C5.81281 18.4196 5.77408 18.3671 5.72871 18.3207C5.65144 18.2363 5.58211 18.145 5.52161 18.0478C5.16398 17.4751 4.95959 16.8201 4.92805 16.1456C4.92057 15.8808 4.50817 15.8797 4.51573 16.1456C4.54133 16.8216 4.72679 17.482 5.05689 18.0726C5.12226 18.1922 5.19579 18.3073 5.27697 18.4168C5.31794 18.4716 5.35995 18.5257 5.40513 18.577C5.42059 18.5941 5.43623 18.6123 5.4528 18.6285C5.48081 18.6563 5.46036 18.657 5.46294 18.6349C5.46105 18.6512 5.44688 18.5999 5.45435 18.6252C5.48006 18.6844 5.50988 18.7418 5.5436 18.797C5.59076 18.8939 5.63594 18.9919 5.68044 19.09C5.77935 19.2972 5.86735 19.5094 5.94406 19.7257C5.95659 19.7689 5.98267 19.8069 6.01846 19.8342C6.05425 19.8614 6.09785 19.8765 6.14284 19.8771C6.58487 19.8322 7.02717 19.7904 7.46792 19.735C7.87955 19.6834 8.31472 19.6433 8.70917 19.5071C8.75198 19.4939 8.78959 19.4676 8.81673 19.432C8.84387 19.3963 8.85918 19.3531 8.86052 19.3083C8.86911 19.1613 8.86499 19.0163 8.88002 18.8696C8.87981 18.7487 8.89922 18.6285 8.93749 18.5137C8.98585 18.4093 9.09958 18.3282 9.17079 18.2377C9.24881 18.1392 9.32053 18.0359 9.38554 17.9284C9.52537 17.6936 9.64525 17.4475 9.74391 17.1926C9.8616 16.921 9.92873 16.6302 9.942 16.3346C9.94342 16.0611 9.8614 15.7937 9.70689 15.5681C9.5332 15.333 9.30127 15.2477 9.02949 15.1729C8.73846 15.0928 8.41891 14.9905 8.115 15.0393C8.00245 15.055 7.89539 15.0977 7.80301 15.1639C7.71063 15.2301 7.6357 15.3177 7.58466 15.4192C7.45667 15.6989 7.54867 16.018 7.74246 16.2438C7.85334 16.3573 7.98674 16.4462 8.13407 16.505C8.29015 16.579 8.45087 16.6435 8.61159 16.7065C8.66431 16.7206 8.72049 16.7135 8.76796 16.6865C8.81543 16.6595 8.85038 16.615 8.86525 16.5625C8.87848 16.5098 8.87089 16.454 8.84406 16.4068C8.81723 16.3596 8.77322 16.3245 8.72119 16.3089L8.72162 16.3086Z" fill="#211715"/>
<path d="M12.8908 24.5318C12.4005 23.501 11.9899 22.6185 11.793 22.1529C12.2691 21.873 16.8914 19.4418 17.7984 19.0433C18.6287 20.5674 19.7973 22.9102 20.6964 24.7494L20.7089 24.7752C20.596 24.8216 20.4695 24.8733 20.3254 24.932C19.958 25.0793 18.3235 25.73 17.9824 25.8662C17.965 25.8727 17.9491 25.8826 17.9356 25.8954C17.9222 25.9082 17.9114 25.9235 17.904 25.9405C17.8965 25.9576 17.8926 25.9759 17.8924 25.9945C17.8922 26.013 17.8957 26.0314 17.9027 26.0486C17.9329 26.1318 17.9687 26.231 18.009 26.3432L17.8498 26.3981C17.6071 26.1477 17.3821 26.0688 16.9679 25.8913C16.7675 25.8331 16.5638 25.7864 16.358 25.7516C16.0917 25.7076 15.8957 25.6638 15.6269 25.639C15.2713 25.6063 15.0653 25.5699 14.9177 25.7151C14.876 25.7581 14.8442 25.8096 14.8246 25.8661C14.8049 25.9227 14.7979 25.9828 14.804 26.0423C14.8244 26.5339 15.6888 26.8326 16.0896 27.1253C15.7113 27.2939 15.3123 27.4116 14.903 27.4752C14.6626 27.4102 14.426 27.3319 14.1943 27.2407C13.7559 26.3379 13.2961 25.3842 12.8908 24.5318Z" fill="#FECB87"/>
<path d="M18.8856 28.8422C18.8792 28.8454 18.8729 28.849 18.8667 28.8525C18.8312 28.8725 18.8027 28.903 18.7851 28.9397C18.7675 28.9765 18.7616 29.0177 18.7683 29.058C18.7694 29.0852 18.7779 29.1117 18.7928 29.1346L18.825 29.1763C18.8502 29.2016 18.8815 29.2198 18.9159 29.2293L18.9707 29.2367C19.0073 29.2367 19.0432 29.227 19.0748 29.2085C19.081 29.2049 19.0873 29.2014 19.0937 29.1982C19.1292 29.1782 19.1576 29.1478 19.1753 29.111C19.1929 29.0743 19.1987 29.033 19.1921 28.9928C19.191 28.9655 19.1825 28.9391 19.1676 28.9161L19.1354 28.8745C19.1102 28.8492 19.0789 28.8309 19.0444 28.8214L18.9896 28.8141C18.9531 28.814 18.9172 28.8237 18.8856 28.8422Z" fill="#211715"/>
<path d="M14.3737 27.1372C13.6743 25.6967 12.9735 24.2559 12.3068 22.8001C12.1925 22.551 12.0789 22.301 11.9717 22.0485L11.8978 22.3306C12.5452 21.9526 13.2206 21.617 13.884 21.2684C14.8708 20.7499 15.8597 20.2344 16.8548 19.7325C17.2016 19.5575 17.5481 19.3783 17.9039 19.2219L17.6219 19.1479C18.4139 20.6035 19.1541 22.0878 19.8892 23.5727C20.1002 23.999 20.3102 24.4259 20.5193 24.8534C20.5472 24.9002 20.5924 24.9342 20.6451 24.948C20.6979 24.9618 20.7539 24.9544 20.8013 24.9273C20.8476 24.899 20.8812 24.8538 20.895 24.8012C20.9088 24.7486 20.9017 24.6927 20.8752 24.6452C20.1234 23.1082 19.3634 21.5748 18.5719 20.0575C18.3769 19.6835 18.1788 19.3109 17.9778 18.9398C17.9493 18.8937 17.9041 18.8603 17.8516 18.8465C17.7991 18.8328 17.7434 18.8397 17.6958 18.8658C16.9147 19.2094 16.1599 19.6218 15.4023 20.0127C14.4378 20.5109 13.4763 21.0148 12.5178 21.5245C12.241 21.6722 11.9608 21.8159 11.6897 21.9742C11.6438 22.0029 11.6105 22.0481 11.5968 22.1006C11.5831 22.153 11.5898 22.2087 11.6158 22.2563C12.153 23.5244 12.7705 24.7615 13.3681 26.0019C13.5839 26.45 13.8005 26.8977 14.0178 27.345C14.0457 27.3918 14.0909 27.4258 14.1437 27.4396C14.1964 27.4534 14.2525 27.446 14.2998 27.4189C14.3462 27.3906 14.3797 27.3453 14.3935 27.2928C14.4073 27.2402 14.4002 27.1843 14.3738 27.1368L14.3737 27.1372Z" fill="#211715"/>
<path d="M15.2781 27.4039C15.5547 27.3311 15.8257 27.2381 16.0887 27.1255C15.6877 26.8335 14.8236 26.5341 14.8031 26.0426C14.797 25.9831 14.804 25.9229 14.8237 25.8664C14.8433 25.8098 14.8751 25.7583 14.9169 25.7154C15.0644 25.5701 15.2704 25.6066 15.626 25.6393C15.8948 25.664 16.0908 25.708 16.3571 25.7518C16.5629 25.7867 16.7666 25.8333 16.967 25.8916C17.3812 26.0687 17.6062 26.1476 17.849 26.3984L18.0081 26.3433C18.239 26.9843 18.6203 28.0473 18.953 28.924C18.9669 28.9604 18.9806 28.9965 18.9942 29.0322L18.977 29.0456C18.0413 29.7918 16.9132 30.5489 15.7423 30.7959C15.6059 30.8248 15.1631 30.7008 15.0413 30.5602C14.7089 30.1764 14.5763 29.8844 14.4572 29.4034C14.2749 29.3102 14.1386 29.0886 14.0419 28.9082C13.9357 28.6858 13.92 28.4309 13.9979 28.1971C13.901 28.1459 13.8089 28.0862 13.7224 28.0189C13.6403 27.9493 13.585 27.8532 13.5659 27.7473C13.5469 27.6414 13.5652 27.5321 13.6179 27.4382C13.6985 27.2994 13.9701 27.1498 14.1697 27.2314L14.1941 27.2414C14.4258 27.3326 14.6623 27.4109 14.9027 27.4758C15.0292 27.4596 15.1545 27.4356 15.2781 27.4039Z" fill="white"/>
<path d="M13.7992 28.1423C13.7093 28.4248 13.7301 28.7309 13.8573 28.9987C13.9695 29.224 14.1283 29.4572 14.3532 29.5811L14.2588 29.4579C14.3399 29.8233 14.4934 30.1688 14.7101 30.474C14.8043 30.6243 14.9328 30.7501 15.0852 30.8409C15.2295 30.914 15.3841 30.9644 15.5437 30.9904C15.7136 31.0086 15.8855 30.9898 16.0474 30.9352C16.2553 30.8802 16.4597 30.8129 16.6596 30.7334C17.0418 30.5807 17.4095 30.3939 17.7582 30.1751C18.1638 29.916 18.5543 29.6339 18.9276 29.3302C18.966 29.2914 18.9875 29.239 18.9875 29.1844C18.9875 29.1298 18.966 29.0774 18.9276 29.0386C18.8884 29.0011 18.8362 28.9802 18.7819 28.9802C18.7276 28.9802 18.6754 29.0011 18.6361 29.0386C17.9124 29.6147 17.1346 30.153 16.249 30.4456C16.1345 30.4834 16.019 30.5172 15.9026 30.5471C15.8493 30.5607 15.7958 30.5735 15.7421 30.5854C15.7236 30.5895 15.6482 30.5955 15.7148 30.5934C15.6969 30.5939 15.6797 30.5934 15.6618 30.5929C15.635 30.5908 15.6084 30.5865 15.5823 30.5801C15.5437 30.5715 15.5055 30.562 15.4676 30.5507C15.3881 30.5292 15.3117 30.4974 15.2404 30.4562C15.1846 30.4134 15.1359 30.3621 15.0958 30.3043C14.9104 30.0722 14.7758 29.8038 14.7007 29.5164C14.6875 29.4417 14.6656 29.3687 14.6353 29.2991C14.6042 29.2457 14.551 29.226 14.5039 29.1914C14.4191 29.1207 14.3485 29.0345 14.2959 28.9374C14.2288 28.838 14.1851 28.7248 14.1679 28.606C14.1508 28.4873 14.1607 28.3663 14.1969 28.252C14.2742 27.9974 13.876 27.8887 13.7993 28.1424L13.7992 28.1423Z" fill="#211715"/>
<path d="M17.9957 26.2523C17.8662 26.1209 17.7166 26.0109 17.5526 25.9265C17.3623 25.8229 17.1623 25.738 16.9555 25.6731C16.5272 25.5561 16.0895 25.4764 15.6474 25.4348C15.4506 25.4153 15.2414 25.3792 15.045 25.4224C14.949 25.4443 14.8602 25.4906 14.7875 25.557C14.7147 25.6234 14.6604 25.7076 14.63 25.8013C14.5061 26.1778 14.7416 26.497 15.0258 26.7139C15.3258 26.943 15.6803 27.0838 15.9861 27.3032L16.0354 26.9265C15.7069 27.0701 15.3643 27.1789 15.0132 27.2511C14.9949 27.2544 14.976 27.2566 14.958 27.2607C14.9597 27.2607 14.8999 27.2693 14.9297 27.2693C14.9446 27.2693 14.8943 27.2603 14.8811 27.2566C14.8176 27.2394 14.7545 27.2194 14.6921 27.1992C14.5686 27.1591 14.446 27.1163 14.3243 27.0709C14.2002 27.0144 14.0624 26.9948 13.9274 27.0146C13.7795 27.0423 13.6429 27.1126 13.5343 27.2168C13.4308 27.3259 13.3678 27.467 13.3557 27.6169C13.3435 27.7667 13.383 27.9162 13.4676 28.0405C13.5836 28.1854 13.732 28.3011 13.9009 28.3782C14.0692 28.466 14.2463 28.5358 14.4292 28.5866C14.685 28.6591 14.7941 28.2613 14.5388 28.1891C14.366 28.1422 14.1997 28.0741 14.0438 27.9861C13.9332 27.9223 13.799 27.8555 13.7714 27.7198C13.7591 27.673 13.7625 27.6235 13.781 27.5787C13.7995 27.534 13.8321 27.4966 13.8739 27.4721C13.9887 27.3977 14.0701 27.4134 14.1902 27.4596C14.3241 27.5111 14.4599 27.558 14.5965 27.6017C14.6585 27.6215 14.7207 27.6407 14.7834 27.6578C14.8643 27.6786 14.9489 27.681 15.0308 27.6647C15.4145 27.5964 15.7885 27.4822 16.1449 27.3246C16.1829 27.3126 16.2168 27.2899 16.2424 27.2593C16.268 27.2287 16.2844 27.1915 16.2895 27.1519C16.2947 27.1123 16.2885 27.0721 16.2716 27.036C16.2547 26.9998 16.2278 26.9692 16.1941 26.9478C15.9615 26.7809 15.6979 26.6614 15.4554 26.5104C15.3357 26.4409 15.2255 26.3562 15.1275 26.2585C15.0917 26.2235 15.062 26.1829 15.0394 26.1382C15.025 26.1125 15.0341 26.1347 15.0203 26.0906C15.0172 26.0807 15.015 26.0705 15.0128 26.0604C15.0083 26.0395 15.0121 26.0797 15.0108 26.0432C15.004 25.9873 15.016 25.9307 15.0448 25.8824C15.0553 25.8634 15.072 25.8488 15.0922 25.8409C15.115 25.8286 15.1401 25.8211 15.1659 25.8188C15.327 25.8125 15.4883 25.8223 15.6475 25.8481C16.0217 25.8867 16.3924 25.9533 16.7566 26.0474C17.0921 26.1333 17.4584 26.295 17.7046 26.5445C17.8913 26.7334 18.1828 26.442 17.9966 26.2529L17.9957 26.2523Z" fill="#211715"/>
<path d="M26.0453 23.7866C26.0816 24.3879 26.1064 25.0009 25.9732 25.5749C25.9206 25.8255 25.8329 26.0675 25.7128 26.2937C25.546 26.5923 25.3394 26.8668 25.0987 27.1098C24.589 27.6266 23.9104 27.9792 23.2611 28.2877C22.5476 28.6171 21.8166 28.907 21.0712 29.1561C20.7369 29.2718 20.4006 29.3814 20.0623 29.485C19.9178 29.5292 19.7729 29.5721 19.6276 29.6139C19.5641 29.632 19.5005 29.6499 19.4368 29.6673C19.4299 29.6692 19.4049 29.6722 19.4004 29.6774L19.3883 29.6806C19.397 29.6766 19.4069 29.6757 19.4162 29.6782C19.4255 29.6806 19.4337 29.6863 19.4393 29.6941C19.4788 29.6982 19.454 29.724 19.4546 29.6911C19.4491 29.6655 19.4405 29.6406 19.4288 29.6171C19.1762 28.903 18.8992 28.1974 18.6402 27.4856C18.5248 27.1685 18.4101 26.8513 18.2961 26.5338C18.251 26.4087 18.206 26.2837 18.1609 26.1586C18.1505 26.1072 18.1326 26.0576 18.1078 26.0114C18.1045 26.0079 18.1055 25.9918 18.0982 25.9932C18.0847 25.996 18.0872 26.0871 18.0455 26.0619C18.05 26.0646 18.0799 26.048 18.0848 26.0462C18.5045 25.893 18.9168 25.7147 19.3319 25.5494C20.2586 25.1801 21.1806 24.8005 22.0979 24.4104C22.244 24.3481 22.3903 24.2863 22.5367 24.2248C22.5885 24.2088 22.6321 24.1736 22.6589 24.1265C22.6856 24.0794 22.6934 24.0239 22.6807 23.9712C22.6659 23.9187 22.631 23.8741 22.5835 23.8472C22.536 23.8202 22.4798 23.8131 22.4271 23.8273C21.4229 24.2493 20.4514 24.6616 19.4367 25.0662C18.9715 25.2516 18.5063 25.4369 18.0411 25.6222C17.9276 25.6675 17.8085 25.7038 17.7388 25.8129C17.6438 25.9616 17.7058 26.1101 17.7592 26.2581C17.8654 26.5523 17.9715 26.8467 18.0775 27.1412C18.3477 27.8885 18.6287 28.632 18.9041 29.3775C18.9375 29.4679 18.9705 29.5585 19.0031 29.6492C19.0291 29.7415 19.0629 29.8314 19.1041 29.918C19.2122 30.1078 19.4134 30.1022 19.5958 30.0516C19.9132 29.9635 20.2286 29.8681 20.5422 29.7675C21.3391 29.5119 22.1275 29.2249 22.8986 28.8999C23.6124 28.5987 24.3245 28.2508 24.9467 27.7841C25.5088 27.3622 26.0195 26.7665 26.2546 26.095C26.432 25.5441 26.5095 24.966 26.4835 24.3879C26.4794 24.1875 26.4696 23.9874 26.4577 23.7874C26.4419 23.5238 26.0294 23.5219 26.0454 23.7874L26.0453 23.7866Z" fill="#211715"/>
</svg>
