<svg width="105" height="105" viewBox="0 0 105 105" fill="none" xmlns="http://www.w3.org/2000/svg">
<rect width="105" height="105" rx="52.5" fill="#EFF9FD"/>
<path d="M48.4219 32.5073H77.6595V54.919H48.4219V32.5073Z" fill="#E6246B"/>
<path d="M73.136 68.67C75.6347 68.67 77.6598 66.6455 77.6598 64.1463V54.6676H48.4639V38.7241L36.1207 38.6836L28.1582 51.9554V64.1459C28.1582 66.645 30.1828 68.6696 32.6803 68.6696H73.136V68.67Z" fill="#F6B246"/>
<path d="M73.136 68.6702C75.6347 68.6702 77.6598 66.6456 77.6598 64.1464V57.8428H28.1582V64.146C28.1582 66.6452 30.1828 68.6698 32.6803 68.6698H73.136V68.6702Z" fill="#ECD4BE"/>
<path d="M71.0201 69.4823C71.0201 72.4435 68.6205 74.8397 65.6623 74.8397C62.7011 74.8397 60.3049 72.443 60.3049 69.4823C60.3049 66.5241 62.7016 64.1245 65.6623 64.1245C68.62 64.1245 71.0201 66.5246 71.0201 69.4823ZM46.0164 69.4823C46.0164 72.4435 43.618 74.8397 40.6586 74.8397C37.6991 74.8397 35.3008 72.443 35.3008 69.4823C35.3008 66.5241 37.6991 64.1245 40.6586 64.1245C43.618 64.1245 46.0164 66.5246 46.0164 69.4823Z" fill="#0093D3"/>
<path d="M39.932 49.9714H29.3142L35.069 40.5458H39.932V49.9714Z" fill="#E09431"/>
</svg>
