<svg width="105" height="105" viewBox="0 0 105 105" fill="none" xmlns="http://www.w3.org/2000/svg">
<rect width="105" height="105" rx="52.5" fill="#EFF9FD"/>
<g clip-path="url(#clip0_709_114)">
<path d="M80 80V77C80 74.6131 79.0518 72.3239 77.364 70.636C75.6761 68.9482 73.3869 68 71 68H47C44.6131 68 42.3239 68.9482 40.636 70.636C38.9482 72.3239 38 74.6131 38 77V80H80Z" fill="#CCD6DD"/>
<path d="M52.4609 68.0571C52.4609 72.3261 65.5409 72.5001 65.5409 68.0571V62.4336H52.4609V68.0571Z" fill="#FFDC5D"/>
<path d="M52.4488 64.9592C54.2728 67.0202 56.5348 67.5782 58.9948 67.5782C61.4533 67.5782 63.7153 67.0187 65.5393 64.9592V59.7227H52.4473L52.4488 64.9592Z" fill="#F9CA55"/>
<path d="M63.7285 30.9499C60.841 30.0154 54.9145 30.2599 53.2165 32.4679C48.8005 32.5534 44.092 36.8659 43.4125 42.1324C42.7405 47.3449 43.765 49.4434 44.299 53.3614C44.9035 57.8014 47.3995 59.2219 49.3945 59.8159C52.2655 63.6094 55.318 63.4474 60.4435 63.4474C70.4515 63.4474 74.35 56.7604 74.7715 45.3874C75.025 38.5099 70.9885 33.2989 63.7285 30.9499Z" fill="#FFAC33"/>
<path d="M70.321 45.9097C69.352 44.5687 68.113 43.4887 65.395 43.1077C66.415 43.5742 67.3915 45.1882 67.519 46.0807C67.6465 46.9732 67.774 47.6947 66.967 46.8022C63.7345 43.2292 60.214 44.6362 56.7265 42.4537C54.2905 40.9297 53.548 39.2422 53.548 39.2422C53.548 39.2422 53.251 41.4922 49.5565 43.7857C48.4855 44.4502 47.2075 45.9307 46.4995 48.1177C45.9895 49.6897 46.1485 51.0907 46.1485 53.4847C46.1485 60.4747 51.91 66.3517 59.0155 66.3517C66.121 66.3517 71.8824 60.4222 71.8824 53.4847C71.8794 49.1377 71.425 47.4382 70.321 45.9097Z" fill="#FFDC5D"/>
<path d="M59.2007 63.0289C55.0697 63.0289 53.8007 61.9714 53.5892 61.7569C53.4956 61.6681 53.4205 61.5617 53.368 61.4438C53.3156 61.3259 53.2869 61.1988 53.2835 61.0698C53.2768 60.8094 53.3738 60.5569 53.5532 60.3679C53.7326 60.1789 53.9798 60.069 54.2403 60.0622C54.5007 60.0555 54.7532 60.1525 54.9422 60.3319C55.0202 60.3874 56.0237 61.0624 59.2007 61.0624C62.5007 61.0624 63.4547 60.3349 63.4637 60.3274C63.5543 60.2375 63.662 60.1667 63.7804 60.1191C63.8989 60.0715 64.0256 60.048 64.1532 60.0501C64.2808 60.0522 64.4067 60.0798 64.5235 60.1313C64.6403 60.1828 64.7456 60.2571 64.8332 60.3499C65.0149 60.5403 65.1146 60.7945 65.1106 61.0577C65.1067 61.3209 64.9995 61.572 64.8122 61.7569C64.5992 61.9714 63.3317 63.0289 59.2007 63.0289ZM60.4412 57.0604H57.5822C57.3924 57.0604 57.2105 56.985 57.0763 56.8508C56.9421 56.7166 56.8667 56.5347 56.8667 56.3449C56.8667 56.1551 56.9421 55.9731 57.0763 55.839C57.2105 55.7048 57.3924 55.6294 57.5822 55.6294H60.4412C60.631 55.6294 60.813 55.7048 60.9471 55.839C61.0813 55.9731 61.1567 56.1551 61.1567 56.3449C61.1567 56.5347 61.0813 56.7166 60.9471 56.8508C60.813 56.985 60.631 57.0604 60.4412 57.0604Z" fill="#C1694F"/>
<path d="M53.2928 52.0551C52.9137 52.0551 52.5501 51.9045 52.282 51.6364C52.0139 51.3683 51.8633 51.0047 51.8633 50.6256V49.1961C51.8633 48.817 52.0139 48.4534 52.282 48.1853C52.5501 47.9172 52.9137 47.7666 53.2928 47.7666C53.6719 47.7666 54.0355 47.9172 54.3036 48.1853C54.5717 48.4534 54.7223 48.817 54.7223 49.1961V50.6256C54.7225 50.8134 54.6856 50.9994 54.6139 51.1729C54.5421 51.3464 54.4368 51.5041 54.304 51.6369C54.1712 51.7696 54.0136 51.8749 53.8401 51.9467C53.6665 52.0185 53.4806 52.0553 53.2928 52.0551ZM64.7318 52.0551C64.3527 52.0551 63.9891 51.9045 63.721 51.6364C63.4529 51.3683 63.3023 51.0047 63.3023 50.6256V49.1961C63.3023 48.817 63.4529 48.4534 63.721 48.1853C63.9891 47.9172 64.3527 47.7666 64.7318 47.7666C65.1109 47.7666 65.4745 47.9172 65.7426 48.1853C66.0107 48.4534 66.1613 48.817 66.1613 49.1961V50.6256C66.1613 51.0047 66.0107 51.3683 65.7426 51.6364C65.4745 51.9045 65.1109 52.0551 64.7318 52.0551Z" fill="#662113"/>
<path d="M45.5 68H50V80H45.5V68ZM68 68H72.5V80H68V68Z" fill="#226699"/>
<path d="M45.5 72.5H72.5V80H45.5V72.5Z" fill="#226699"/>
<path d="M67.625 78.5C69.489 78.5 71 77.6605 71 76.625C71 75.5895 69.489 74.75 67.625 74.75C65.761 74.75 64.25 75.5895 64.25 76.625C64.25 77.6605 65.761 78.5 67.625 78.5Z" fill="#F5F8FA"/>
<path d="M72.5 40.25C72.5 42.23 45.5 42.23 45.5 40.25C45.5 34.931 47 27.5 59 27.5C69.5 27.5 72.5 34.931 72.5 40.25Z" fill="#3B88C3"/>
<path d="M45.5833 40.25C45.5833 40.25 44.8333 44.75 47.8333 44.75C49.3333 44.75 51.5833 41.75 59.0833 41.75C66.5833 41.75 68.8333 44.75 70.3333 44.75C73.3333 44.75 72.5833 40.25 72.5833 40.25C72.5833 40.25 70.3333 41 59.0833 41C47.8333 41 45.5833 40.25 45.5833 40.25Z" fill="#226699"/>
<path d="M45.4993 39.5C45.4993 39.5 44.7493 44 47.7493 44C49.2493 44 51.4993 41 58.9993 41C66.4993 41 68.7493 44 70.2493 44C73.2493 44 72.4993 39.5 72.4993 39.5C72.4993 39.5 70.2493 40.25 58.9993 40.25C47.7493 40.25 45.4993 39.5 45.4993 39.5Z" fill="#55ACEE"/>
<path d="M56.75 28.25C56.75 28.25 56.75 26 59 26C61.25 26 61.25 28.25 61.25 28.25H56.75Z" fill="#226699"/>
<path d="M40.2515 61.4525C40.244 58.745 38.7125 56.423 36.485 55.223L36.503 61.8365C36.503 62.666 34.994 63.341 33.1295 63.344C31.2665 63.3485 29.7545 62.6795 29.753 61.8515L29.738 55.2395C27.518 56.4485 25.997 58.7765 26 61.484C26.009 64.6205 28.055 67.2515 30.875 68.1965V80H35.375V68.1965C38.207 67.2485 40.259 64.601 40.2515 61.4525Z" fill="#66757F"/>
</g>
<defs>
<clipPath id="clip0_709_114">
<rect width="54" height="54" fill="white" transform="translate(26 26)"/>
</clipPath>
</defs>
</svg>
