<svg width="105" height="105" viewBox="0 0 105 105" fill="none" xmlns="http://www.w3.org/2000/svg">
<rect width="105" height="105" rx="52.5" fill="#EFF9FD"/>
<g clip-path="url(#clip0_709_92)">
<path d="M42.7632 71.1533H32.9592C32.4498 71.1533 31.9664 70.9279 31.6389 70.5376L27.4553 65.5511C26.7776 64.7432 26.4043 63.7176 26.4043 62.6632V49.684C26.4043 48.6295 26.7776 47.6038 27.4553 46.796L34.5929 38.2893C36.2036 36.3697 39.0893 36.0575 41.0256 37.594C43.0651 39.212 43.3609 42.1812 41.6933 44.1688L36.2671 50.6355V52.3417C37.0892 51.2905 38.3447 50.5975 39.749 50.5589C42.3509 50.4879 44.4866 52.5707 44.4866 55.1665V69.4299C44.4867 70.3817 43.7151 71.1533 42.7632 71.1533Z" fill="#FFD15C"/>
<path d="M38.0262 60.0996C38.9779 60.0996 39.7496 59.328 39.7496 58.3763V50.5588C39.7492 50.5588 39.7487 50.5588 39.7484 50.5588C38.3641 50.5969 37.1254 51.2714 36.3027 52.2974V58.3763C36.3028 59.3281 37.0743 60.0996 38.0262 60.0996Z" fill="#F8B64C"/>
<path d="M45.4511 79.7565H27.7234C26.7716 79.7565 26 78.9849 26 78.0331V69.4299C26 68.4782 26.7716 67.7066 27.7234 67.7066H45.451C46.4027 67.7066 47.1743 68.4782 47.1743 69.4299V78.0331C47.1744 78.9848 46.4028 79.7565 45.4511 79.7565Z" fill="#169ED9"/>
<path d="M57.19 44.8541L53 42.6514L48.81 44.8541C47.5483 45.5175 46.0684 44.4431 46.3095 43.0373L47.1097 38.3718L43.72 35.0677C42.6992 34.0726 43.2636 32.3332 44.6751 32.1282L49.3595 31.4476L51.4545 27.2027C52.0855 25.9242 53.9141 25.924 54.5453 27.2027L56.6401 31.4476L61.3245 32.1282C62.7354 32.3333 63.3008 34.0723 62.2797 35.0677L58.89 38.3718L59.6902 43.0373C59.933 44.4513 58.4436 45.513 57.19 44.8541Z" fill="#FF7058"/>
<path d="M61.5137 69.4298V55.1664C61.5137 52.5737 63.6465 50.4877 66.2512 50.5588C67.6555 50.5973 68.911 51.2903 69.7332 52.3415V50.6354L64.3069 44.1685C62.6403 42.1824 62.9336 39.213 64.9745 37.5937C66.9109 36.0573 69.7968 36.3694 71.4073 38.2891L78.545 46.7958C79.2227 47.6036 79.596 48.6292 79.596 49.6837V62.663C79.596 63.7175 79.2227 64.7431 78.545 65.551L74.3613 70.5374C74.0339 70.9278 73.5505 71.1531 73.0411 71.1531H63.237C62.2853 71.1531 61.5137 70.3815 61.5137 69.4298Z" fill="#F8B64C"/>
<path d="M67.9734 60.0996C67.0216 60.0996 66.25 59.328 66.25 58.3763V50.5588C66.2503 50.5588 66.2508 50.5588 66.2512 50.5588C67.6354 50.5969 68.8742 51.2714 69.6968 52.2974V58.3763C69.6967 59.3281 68.9252 60.0996 67.9734 60.0996Z" fill="#F59D00"/>
<path d="M58.8262 78.0331V69.4299C58.8262 68.4782 59.5978 67.7065 60.5495 67.7065H78.2772C79.229 67.7065 80.0006 68.4782 80.0006 69.4299V78.0331C80.0006 78.9848 79.229 79.7565 78.2772 79.7565H60.5495C59.5978 79.7566 58.8262 78.9848 58.8262 78.0331Z" fill="#127FB5"/>
<path d="M61.3249 32.1281L56.6405 31.4475L54.5456 27.2026C54.2301 26.5631 53.6149 26.2434 52.9999 26.2435V42.6515L53.0002 42.6513L57.1902 44.854C58.4438 45.5129 59.9333 44.4513 59.6908 43.0372L58.8906 38.3717L62.2803 35.0676C63.3011 34.0722 62.7357 32.3332 61.3249 32.1281Z" fill="#F1543F"/>
</g>
<defs>
<clipPath id="clip0_709_92">
<rect width="54" height="54" fill="white" transform="translate(26 26)"/>
</clipPath>
</defs>
</svg>
