<svg width="31" height="31" viewBox="0 0 31 31" fill="none" xmlns="http://www.w3.org/2000/svg">
<g clip-path="url(#clip0_356_166)">
<path d="M27.3757 0.13561L27.3763 6.36491L23.8897 8.7771L20.4043 6.3637L20.4013 0.134399C18.2405 1.35502 16.7781 3.66991 16.7781 6.33167C16.7781 7.40069 17.0337 8.40728 17.4567 9.31615L0.809989 25.9642C-0.27047 27.0409 -0.268715 28.7915 0.807567 29.8688C1.88797 30.9492 3.63662 30.9469 4.71466 29.8682L21.5627 13.0196C21.5627 13.0196 23.0715 13.439 23.8873 13.4396C27.8168 13.4426 31 10.2558 31 6.32871C30.9994 3.67058 29.5377 1.35563 27.3757 0.13561Z" fill="#A2A9AF"/>
<path d="M2.75024 28.6611C3.15596 28.6611 3.48486 28.3322 3.48486 27.9265C3.48486 27.5208 3.15596 27.1919 2.75024 27.1919C2.34452 27.1919 2.01562 27.5208 2.01562 27.9265C2.01562 28.3322 2.34452 28.6611 2.75024 28.6611Z" fill="white"/>
<path d="M23.9882 22.9982L14.7048 13.7148L13.3672 15.0524L22.6505 24.3359L23.4702 26.596L27.7399 30.8658L30.5181 28.0876L26.2484 23.8178L23.9882 22.9982Z" fill="#4C5870"/>
<path d="M12.9793 17.5164L0.98792 5.52568C-0.16907 4.36935 -0.171613 2.49367 0.987254 1.3348C2.14285 0.180417 4.02059 0.17854 5.17558 1.33735L17.1677 13.3281L12.9793 17.5164Z" fill="#EE3840"/>
<path d="M13.7316 14.0797C13.4447 14.3666 12.9796 14.3666 12.6927 14.0797L2.5589 3.94591C2.27203 3.65904 2.27203 3.19392 2.5589 2.90705C2.84577 2.62018 3.3109 2.62018 3.59777 2.90705L13.7316 13.0408C14.0184 13.3277 14.0185 13.7929 13.7316 14.0797Z" fill="#C21B23"/>
<path d="M18.012 13.5235L13.1759 18.3597C12.889 18.6465 12.4239 18.6465 12.137 18.3597C11.8502 18.0728 11.8502 17.6077 12.137 17.3208L16.9731 12.4847C17.26 12.1978 17.7251 12.1978 18.012 12.4847C18.2989 12.7716 18.2989 13.2367 18.012 13.5235Z" fill="#C21B23"/>
</g>
<defs>
<clipPath id="clip0_356_166">
<rect width="31" height="31" fill="white"/>
</clipPath>
</defs>
</svg>
