<svg width="31" height="31" viewBox="0 0 31 31" fill="none" xmlns="http://www.w3.org/2000/svg">
<g clip-path="url(#clip0_356_177)">
<path d="M0.242188 8.53711C0.242188 10.1934 1.40771 11.601 2.90625 12.1186V28.3965H0.242188V30.5762H30.7578V28.3965H28.0938V12.1159C29.6546 11.6382 30.7214 10.2516 30.7578 8.53711V7.56836H0.242188V8.53711ZM7.90621 8.45791C7.90621 9.24224 8.7242 12.2687 11.7482 12.2687C14.3746 12.2687 15.5265 9.89348 15.5265 8.45791C15.5265 9.79624 16.4238 12.2659 19.3366 12.2659C21.9683 12.2659 23.1345 9.7231 23.1345 8.45791C23.1345 10.2047 24.3122 11.6567 25.9141 12.1094V28.3965H5.08594V12.1208C6.70884 11.6814 7.90621 10.2197 7.90621 8.45791ZM30.7578 6.7207H0.242188L4.11719 2.8457V0.423828H27.0039V2.8457H26.9836L30.7578 6.7207ZM20.3289 24.6966C20.3446 24.838 20.3289 25.0055 20.2922 25.1627L18.9569 23.9321L17.7525 25.2465L19.1035 26.4718C18.9464 26.5241 18.7946 26.5608 18.6374 26.5608C18.1713 26.5766 17.7734 26.4351 17.433 26.1262C17.0926 25.8016 16.9094 25.4245 16.8937 24.9585C16.8937 24.7961 16.9094 24.6129 16.946 24.4559L16.6213 24.1469L14.6786 22.3717L11.3901 25.9952C11.1911 26.2622 10.8821 26.4455 10.5261 26.4455C9.95003 26.4455 9.48406 25.9795 9.48406 25.4035C9.48406 25.0946 9.60455 24.8117 9.8402 24.6128L13.2544 21.0729L11.1911 19.1825C11.0287 19.2557 10.8455 19.2924 10.6885 19.2924C10.2224 19.3082 9.82446 19.1667 9.48406 18.8578C9.14367 18.5489 8.96045 18.1718 8.94471 17.7057C8.92897 17.5643 8.94471 17.3968 8.9814 17.2396L10.3324 18.465L11.5264 17.1558L10.1754 15.9305C10.3168 15.8782 10.4843 15.8415 10.6415 15.8415C11.1076 15.8257 11.5055 15.9672 11.8459 16.2761C12.1863 16.5798 12.3695 16.9778 12.3852 17.4438C12.401 17.6009 12.3852 17.7527 12.3485 17.9099L14.4746 19.8579L16.0298 18.177L13.7048 16.1296L15.8151 13.726L21.79 18.9835L19.6797 21.3871L17.2918 19.282L15.7889 21.0572L18.1245 23.1937C18.2815 23.1414 18.4334 23.1047 18.5906 23.1047C19.0566 23.0889 19.4546 23.2304 19.795 23.5393C20.1351 23.843 20.3183 24.2201 20.3289 24.6966Z" fill="#21A6E9"/>
</g>
<defs>
<clipPath id="clip0_356_177">
<rect width="31" height="31" fill="white"/>
</clipPath>
</defs>
</svg>
