<svg width="77" height="77" viewBox="0 0 77 77" fill="none" xmlns="http://www.w3.org/2000/svg">
<rect width="77" height="77" rx="14" fill="#EFF9FD"/>
<path d="M61.5296 32.4898C61.5296 32.4898 59.0242 30.8004 54.8225 29.8239C56.7004 28.5746 58.1264 26.7541 58.8895 24.6316C59.6526 22.5091 59.7123 20.1973 59.0598 18.0383C58.4072 15.8792 57.0771 13.9876 55.2662 12.643C53.4552 11.2985 51.2596 10.5725 49.0041 10.5725C46.7486 10.5725 44.553 11.2985 42.742 12.643C40.9311 13.9876 39.6009 15.8792 38.9484 18.0383C38.2959 20.1973 38.3555 22.5091 39.1186 24.6316C39.8817 26.7541 41.3077 28.5746 43.1857 29.8239C41.1583 30.3088 39.6378 30.8747 38.4992 31.4407C37.9332 26.1071 33.4883 21.9055 27.9942 21.9055C25.7403 21.9037 23.5458 22.6276 21.7354 23.9702C19.925 25.3128 18.595 27.2026 17.9423 29.3599C17.2896 31.5172 17.3489 33.8273 18.1114 35.9483C18.8738 38.0693 20.299 39.8884 22.1758 41.1364C17.9742 42.1061 15.4687 43.8023 15.4687 43.8023C13.933 44.691 12.6406 46.7926 12.6406 48.5699V59.0748C12.6433 59.9312 12.9846 60.7517 13.5901 61.3572C14.1957 61.9627 15.0162 62.3041 15.8725 62.3067H40.1159C40.9723 62.3041 41.7928 61.9627 42.3983 61.3572C43.0038 60.7517 43.3452 59.9312 43.3478 59.0748V50.9942H61.1275C61.9838 50.9916 62.8043 50.6502 63.4098 50.0447C64.0154 49.4392 64.3567 48.6187 64.3594 47.7624V37.2574C64.3594 35.4784 63.1548 33.2974 61.5296 32.4898Z" fill="#E7E7E7"/>
<path d="M63.9354 37.2574V47.7624C63.9327 48.6187 63.5913 49.4392 62.9858 50.0447C62.3803 50.6502 61.5598 50.9916 60.7035 50.9942H42.9255V59.0765C42.9224 59.9333 42.5804 60.754 41.9742 61.3596C41.3681 61.9651 40.547 62.3062 39.6902 62.3084H15.4484C14.592 62.3062 13.7712 61.965 13.1656 61.3594C12.56 60.7537 12.2188 59.933 12.2165 59.0765V54.6586C13.5681 55.1841 15.0328 55.4594 16.4722 55.7213C21.9494 56.7062 28.3152 57.3195 32.3986 53.5402C34.3195 51.7646 35.4903 49.1798 37.7406 47.8485C39.9909 46.5172 42.7515 46.7352 45.3296 46.4108C51.6227 45.6218 57.1286 41.3999 60.6088 36.1052C61.198 35.2084 61.7389 34.2807 62.229 33.3261C63.2528 34.3617 63.9354 35.9211 63.9354 37.2574Z" fill="#CED0D0"/>
<path d="M40.116 63.7461H15.8725C14.7469 63.7448 13.6678 63.2971 12.8719 62.5012C12.076 61.7053 11.6283 60.6262 11.6269 59.5006V48.994C11.6269 46.921 13.0765 44.4646 14.9315 43.3664C15.2018 43.1873 17.0112 42.0368 19.9846 41.106C18.3375 39.5107 17.2042 37.4599 16.7298 35.2165C16.2555 32.9731 16.4617 30.6392 17.3221 28.5137C18.1825 26.3882 19.6579 24.568 21.5592 23.2863C23.4605 22.0045 25.7012 21.3196 27.9942 21.3192C30.6292 21.3236 33.184 22.2263 35.2367 23.8785C37.2895 25.5307 38.7174 27.8335 39.2847 30.4067C39.8175 30.1927 40.3891 29.9906 40.9995 29.8002C39.35 28.2051 38.2145 26.1537 37.7385 23.909C37.2626 21.6643 37.4679 19.3286 38.3282 17.2013C39.1885 15.0741 40.6646 13.2522 42.5671 11.9694C44.4697 10.6866 46.712 10.0013 49.0066 10.0013C51.3013 10.0013 53.5436 10.6866 55.4461 11.9694C57.3487 13.2522 58.8247 15.0741 59.685 17.2013C60.5453 19.3286 60.7507 21.6643 60.2747 23.909C59.7988 26.1537 58.6633 28.2051 57.0137 29.8002C59.9044 30.7058 61.6952 31.8276 62.0415 32.0438C63.9134 33.0152 65.3731 35.4801 65.3731 37.6882V48.1813C65.3731 49.3078 64.9259 50.3882 64.1299 51.1852C63.3338 51.9822 62.254 52.4306 61.1275 52.432H44.3615V59.5006C44.3602 60.6262 43.9124 61.7053 43.1165 62.5012C42.3206 63.2971 41.2415 63.7448 40.116 63.7461ZM27.9942 23.3466C25.4788 23.3497 23.0673 24.35 21.2881 26.1282C19.509 27.9063 18.5074 30.3174 18.503 32.8328C18.4968 34.3937 18.8798 35.9315 19.6172 37.3072C20.3547 38.683 21.4233 39.8533 22.7265 40.7123L24.7083 42.0149L22.3988 42.5487C18.4607 43.4509 16.06 45.0508 16.0364 45.066L15.9772 45.1032C14.7186 45.833 13.6543 47.6137 13.6543 48.994V59.5006C13.6552 60.0886 13.8891 60.6523 14.305 61.0681C14.7208 61.4839 15.2845 61.7179 15.8725 61.7188H40.116C40.704 61.7179 41.2677 61.4839 41.6835 61.0681C42.0993 60.6523 42.3333 60.0886 42.3342 59.5006V50.4046H61.1275C61.7164 50.4037 62.2809 50.169 62.6968 49.7521C63.1128 49.3352 63.3462 48.7702 63.3457 48.1813V37.6815C63.3457 36.2285 62.2865 34.4242 61.0785 33.8211L61.0194 33.7907L60.9653 33.7535C60.9282 33.7299 58.5308 32.1418 54.5978 31.2346L52.2884 30.7007L54.2701 29.3981C55.5734 28.5392 56.6422 27.3689 57.3796 25.9932C58.117 24.6174 58.4999 23.0795 58.4937 21.5186C58.4937 20.2722 58.2482 19.038 57.7712 17.8864C57.2942 16.7349 56.5951 15.6886 55.7137 14.8073C54.8324 13.9259 53.7861 13.2268 52.6346 12.7498C51.483 12.2728 50.2488 12.0273 49.0024 12.0273C47.756 12.0273 46.5218 12.2728 45.3703 12.7498C44.2187 13.2268 43.1724 13.9259 42.2911 14.8073C41.4097 15.6886 40.7106 16.7349 40.2336 17.8864C39.7566 19.038 39.5111 20.2722 39.5111 21.5186C39.5049 23.0795 39.8878 24.6174 40.6252 25.9932C41.3626 27.3689 42.4314 28.5392 43.7347 29.3981L45.6928 30.6838L43.4154 31.2312C41.8727 31.5755 40.3733 32.0912 38.9452 32.7686L37.6443 33.4224L37.4906 31.9695C37.2552 29.6119 36.154 27.4253 34.3999 25.8326C32.6459 24.2398 30.3635 23.3541 27.9942 23.3466Z" fill="#426572"/>
<path d="M26.2997 26.3656C27.2214 26.0454 28.1985 25.9161 29.1718 25.9855C29.8222 26.0328 29.8205 25.0191 29.1718 24.9718C28.1076 24.898 27.0394 25.0393 26.0311 25.3874C25.4161 25.5952 25.6797 26.57 26.3014 26.3656H26.2997Z" fill="white"/>
<path d="M24.5928 38.5092C23.7765 37.9144 23.0958 37.1531 22.5958 36.2756C22.0957 35.3981 21.7876 34.4244 21.692 33.419C21.4757 31.2142 22.3458 29.1954 23.971 27.7306C24.4559 27.2914 23.7362 26.5767 23.2547 27.0143C19.494 30.4219 19.9857 36.4616 24.0809 39.3844C24.613 39.7645 25.1199 38.8775 24.5877 38.5092H24.5928Z" fill="white"/>
<path d="M40.0661 66.8226C40.0661 66.8226 54.7355 59.4888 54.7355 48.4855V33.8211L40.0661 30.1534L25.3984 33.8211V48.4905C25.3984 59.4888 40.0661 66.8226 40.0661 66.8226Z" fill="#A9EA9C"/>
<path d="M54.7355 41.5182V47.6492C54.7355 58.6525 40.0661 65.9864 40.0661 65.9864C40.0661 65.9864 25.3984 58.6559 25.3984 47.6509V41.5182C25.3984 52.5216 40.0661 59.8554 40.0661 59.8554C40.0661 59.8554 54.7355 52.5216 54.7355 41.5182Z" fill="#91CD86"/>
<path d="M40.065 67L39.6122 66.7652C36.9065 65.3357 34.3753 63.5981 32.0688 61.5871C27.0444 57.1945 24.3886 52.3289 24.3886 47.5292V32.0692L40.0717 28.148L55.7548 32.0692V47.5292C55.7548 52.3289 53.099 57.1895 48.0746 61.5871C45.7634 63.5991 43.227 65.3367 40.516 66.7652L40.065 67ZM26.4109 33.6522V47.5292C26.4109 56.7282 37.6474 63.3914 40.0666 64.7176C42.4825 63.3897 53.7224 56.7147 53.7224 47.5292V33.6522L40.0666 30.2378L26.4109 33.6522Z" fill="#426572"/>
</svg>
