<svg width="31" height="31" viewBox="0 0 31 31" fill="none" xmlns="http://www.w3.org/2000/svg">
<path d="M26.9146 7.68806C27.8437 9.92878 27.4009 12.6035 25.5787 14.4257C23.5724 16.432 20.5403 16.7459 18.1833 15.4158L16.4792 17.2767L17.695 18.4974L18.4216 17.7708C18.7926 17.3988 19.3952 17.3988 19.7662 17.7708L25.6582 23.7228C26.0302 24.0938 26.0302 24.6964 25.6582 25.0674L22.9689 27.7567C22.5979 28.1287 21.9953 28.1287 21.6243 27.7567L15.7323 21.8047C15.3603 21.4336 15.3603 20.8311 15.7323 20.4601L16.3959 19.7965L15.2373 18.6349L7.08916 27.5368C6.34612 28.2798 5.14197 28.2798 4.39991 27.5368L3.72759 26.8645C2.98456 26.1214 2.98456 24.9173 3.72759 24.1752L13.0102 16.401L6.84503 10.2194L4.89784 10.2184L2.64453 6.59531L4.45803 4.7789L8.1635 7.04674L8.18772 8.95324L14.4245 15.2143L16.239 13.6953C14.4652 11.2773 14.6502 7.87115 16.8357 5.68565C18.6493 3.87215 21.3094 3.42168 23.5443 4.33328L19.5492 8.27318L22.9117 11.6357L26.9146 7.68806ZM5.95766 25.1236C5.58662 24.7526 4.98503 24.7526 4.61303 25.1236C4.24103 25.4956 4.24103 26.0972 4.61303 26.4692C4.98503 26.8402 5.58662 26.8402 5.95766 26.4692C6.32966 26.0962 6.32966 25.4946 5.95766 25.1236Z" fill="white"/>
</svg>
