<svg width="31" height="31" viewBox="0 0 31 31" fill="none" xmlns="http://www.w3.org/2000/svg">
<g clip-path="url(#clip0_356_90)">
<path d="M23.7135 1.31421L9.43555 15.5922V19.8805H13.7238L28.0018 5.60256L23.7135 1.31421Z" fill="#B7C5D2"/>
<path d="M15.5 18.1036L28.001 5.60256L23.7127 1.31421L15.5 9.52697V18.1036Z" fill="#A4B5C5"/>
<path d="M27.9682 26.6195H9.43555V18.5326H27.9682C29.643 18.5326 31.0008 19.8903 31.0008 21.5652V23.5869C31.0008 25.2618 29.6431 26.6195 27.9682 26.6195Z" fill="#8C6D50"/>
<path d="M9.77113 10.4457H5.05374C3.38149 10.4457 2.02113 11.806 2.02113 13.4783V16.5109V17.1032L0.887869 18.2368C0.796201 18.3284 0.722758 18.4321 0.644531 18.5326H10.782V11.4565C10.782 10.8981 10.3292 10.4457 9.77113 10.4457Z" fill="#6E6057"/>
<path d="M2.02172 17.1033L0.888465 18.2368C0.796797 18.3284 0.723354 18.432 0.645127 18.5326C0.234074 19.0616 0 19.7006 0 20.381V23.587C0 25.2592 1.36037 26.6196 3.03261 26.6196H10.7826V17.1033H2.02172Z" fill="#DA9A2B"/>
<path d="M3.03261 20.5543H0V22.576H3.03261C3.59067 22.576 4.0435 22.1236 4.0435 21.5652C4.0435 21.0067 3.59067 20.5543 3.03261 20.5543Z" fill="#8C6D50"/>
<path d="M8.76225 30.6631C6.53255 30.6631 4.71875 28.8493 4.71875 26.6196C4.71875 24.3898 6.53249 22.576 8.76225 22.576C10.992 22.576 12.8058 24.3898 12.8058 26.6196C12.8058 28.8493 10.992 30.6631 8.76225 30.6631Z" fill="#6E6057"/>
<path d="M12.8033 26.6196C12.8033 24.3899 10.9895 22.576 8.75977 22.576V30.663C10.9895 30.6631 12.8033 28.8493 12.8033 26.6196Z" fill="#615349"/>
<path d="M8.76196 24.5978C7.64711 24.5978 6.74023 25.5047 6.74023 26.6195C6.74023 27.7343 7.64711 28.6412 8.76196 28.6412C9.8768 28.6412 10.7837 27.7343 10.7837 26.6195C10.7837 25.5047 9.8768 24.5978 8.76196 24.5978Z" fill="#DBDFE3"/>
<path d="M10.7815 26.6195C10.7815 25.5047 9.87462 24.5978 8.75977 24.5978V28.6413C9.87462 28.6412 10.7815 27.7343 10.7815 26.6195Z" fill="#CAD1D7"/>
<path d="M27.9674 18.5326H15.5V26.6195H27.9674C29.6424 26.6195 31 25.2618 31 23.5869V21.5652C31 19.8903 29.6424 18.5326 27.9674 18.5326Z" fill="#765B43"/>
<path d="M25.9467 16.5109C24.2744 16.5109 22.9141 15.1505 22.9141 13.4782C22.9141 12.9198 23.3669 12.4674 23.925 12.4674C24.483 12.4674 24.9358 12.9198 24.9358 13.4782C24.9358 14.0356 25.3893 14.4891 25.9467 14.4891C26.5041 14.4891 26.9576 14.0356 26.9576 13.4782C26.9576 13.1015 26.7503 12.7582 26.416 12.5822C25.5032 12.1021 24.9358 11.1073 24.9358 9.98632V6.22842C24.9358 5.67 25.3887 5.21753 25.9467 5.21753C26.5048 5.21753 26.9576 5.67 26.9576 6.22842V9.98632C26.9576 10.343 27.1182 10.6675 27.3578 10.7932C28.3581 11.32 28.9793 12.3489 28.9793 13.4782C28.9793 15.1505 27.6189 16.5109 25.9467 16.5109Z" fill="#8C6D50"/>
<path d="M25.9467 6.40214C24.2744 6.40214 22.9141 5.04177 22.9141 3.36953C22.9141 1.69728 24.2744 0.336914 25.9467 0.336914C27.6189 0.336914 28.9793 1.69728 28.9793 3.36953C28.9793 5.04177 27.6189 6.40214 25.9467 6.40214Z" fill="#E2E7EC"/>
<path d="M28.9779 3.36953C28.9779 1.69728 27.6176 0.336914 25.9453 0.336914V6.40214C27.6176 6.40214 28.9779 5.04177 28.9779 3.36953Z" fill="#CCD5E0"/>
<path d="M22.9126 30.6631C20.6829 30.6631 18.8691 28.8493 18.8691 26.6196C18.8691 24.3898 20.6829 22.576 22.9126 22.576C25.1424 22.576 26.9561 24.3898 26.9561 26.6196C26.9561 28.8493 25.1423 30.6631 22.9126 30.6631Z" fill="#6E6057"/>
<path d="M26.9576 26.6196C26.9576 24.3899 25.1438 22.576 22.9141 22.576V30.663C25.1438 30.6631 26.9576 28.8493 26.9576 26.6196Z" fill="#615349"/>
<path d="M22.9123 24.5978C21.7975 24.5978 20.8906 25.5047 20.8906 26.6195C20.8906 27.7343 21.7975 28.6412 22.9123 28.6412C24.0272 28.6412 24.9341 27.7343 24.9341 26.6195C24.9341 25.5047 24.0272 24.5978 22.9123 24.5978Z" fill="#DBDFE3"/>
<path d="M24.9358 26.6195C24.9358 25.5047 24.0289 24.5978 22.9141 24.5978V28.6413C24.0289 28.6412 24.9358 27.7343 24.9358 26.6195Z" fill="#CAD1D7"/>
<path d="M25.9464 2.35876C25.389 2.35876 24.9355 2.81226 24.9355 3.36966C24.9355 3.92705 25.389 4.38055 25.9464 4.38055C26.5038 4.38055 26.9573 3.92705 26.9573 3.36966C26.9573 2.81226 26.5038 2.35876 25.9464 2.35876Z" fill="#6E6057"/>
<path d="M26.9562 3.36953C26.9562 2.81214 26.5027 2.35864 25.9453 2.35864V4.38036C26.5028 4.38042 26.9562 3.92693 26.9562 3.36953Z" fill="#615349"/>
</g>
<defs>
<clipPath id="clip0_356_90">
<rect width="31" height="31" fill="white"/>
</clipPath>
</defs>
</svg>
