<svg width="31" height="31" viewBox="0 0 31 31" fill="none" xmlns="http://www.w3.org/2000/svg">
<path d="M21.9088 2.20284C19.6567 2.29075 16.9546 3.58879 16.3948 5.60009C13.9108 3.17201 8.04684 3.71803 8.50268 8.99735C8.65534 8.94801 8.78698 8.88289 8.94694 8.84055C10.9569 8.30858 14.3565 9.29522 15.5324 11.1402C15.6414 9.04971 17.1801 7.0287 22.1962 6.30568V4.21506L26.2207 7.11579L22.1962 10.0165V7.97817C19.2366 8.48857 17.9778 9.54213 17.9105 10.9834C20.3026 10.2249 25.3643 13.7727 24.3563 17.5969C25.6154 17.9708 26.285 17.8793 26.8479 19.4504C33.9359 17.5637 30.399 9.14508 27.5796 9.78133C28.0834 5.10157 26.3586 3.12391 23.3722 2.3335C22.9334 2.21737 22.4285 2.18255 21.9088 2.20284ZM8.58108 11.2186C8.24784 11.2345 7.93281 11.2719 7.6403 11.3493C4.65388 12.1397 2.92915 14.1174 3.43293 18.7971C0.413872 18.1158 -3.45116 27.8065 5.81101 28.7537C12.8203 28.7365 13.6699 28.7448 20.576 28.806C29.5181 27.3384 25.6599 18.8578 22.3792 18.9278C23.6237 12.8036 17.2382 12.0544 14.6177 14.6159C14.0149 12.4499 10.9137 11.1077 8.58108 11.2186Z" fill="#00BCF2"/>
<path d="M17.9149 10.979C17.9823 9.53767 19.2371 8.48692 22.1967 7.97652V10.013L26.2174 7.11494L22.1967 4.21692V6.30559C17.1806 7.02861 15.6481 9.04511 15.5391 11.1356C16.725 11.0605 16.9402 11.0555 17.9149 10.979Z" fill="white"/>
</svg>
