<svg width="105" height="105" viewBox="0 0 105 105" fill="none" xmlns="http://www.w3.org/2000/svg">
<rect width="105" height="105" rx="52.5" fill="#EFF9FD"/>
<path d="M74.7077 45.9573L69.0788 31.2077C69.0788 31.1991 69.0658 31.1969 69.0626 31.1894C69.0112 31.0656 68.9151 30.9657 68.7934 30.9097C68.6717 30.8536 68.5333 30.8455 68.4059 30.887L55.5971 35.0893C55.2805 34.4585 54.7478 33.9625 54.0961 33.6916C53.4444 33.4206 52.7171 33.3928 52.0466 33.6132C51.3761 33.8336 50.8071 34.2875 50.4433 34.8923C50.0794 35.497 49.9449 36.2124 50.0643 36.908L37.2576 41.107C37.1847 41.1314 37.1179 41.1713 37.0619 41.2241C37.006 41.2769 36.9622 41.3412 36.9336 41.4127C36.9336 41.4191 36.9239 41.4213 36.9207 41.4278L31.2917 56.1773C30.913 57.1706 30.7814 58.241 30.9081 59.2964C31.0349 60.3518 31.4162 61.3606 32.0193 62.236C32.6224 63.1114 33.4291 63.8271 34.3702 64.3215C35.3112 64.8159 36.3583 65.0742 37.4212 65.0742C38.4842 65.0742 39.5313 64.8159 40.4723 64.3215C41.4134 63.8271 42.2201 63.1114 42.8232 62.236C43.4263 61.3606 43.8076 60.3518 43.9344 59.2964C44.0611 58.241 43.9295 57.1706 43.5508 56.1773L38.1324 41.9559L50.4077 37.9307C50.5828 38.2509 50.8157 38.5357 51.0946 38.771C51.0923 38.7788 51.0905 38.7867 51.0892 38.7947V64.0927C49.3616 64.4378 47.7546 65.2296 46.4281 66.389C45.1017 67.5485 44.1022 69.0352 43.5292 70.7012H41.8649C41.4874 70.7015 41.1254 70.8515 40.8583 71.1183C40.5913 71.3852 40.441 71.7471 40.4404 72.1246V73.7165C40.4412 74.094 40.5916 74.4557 40.8586 74.7225C41.1256 74.9893 41.4875 75.1394 41.8649 75.14H64.1345C64.512 75.1394 64.8738 74.9893 65.1408 74.7225C65.4078 74.4557 65.5582 74.094 65.559 73.7165V72.1246C65.5585 71.7471 65.4082 71.3852 65.1411 71.1183C64.874 70.8515 64.512 70.7015 64.1345 70.7012H62.4778C61.9047 69.0352 60.9052 67.5485 59.5788 66.389C58.2524 65.2296 56.6454 64.4378 54.9178 64.0927V38.7947C54.9165 38.7867 54.9147 38.7788 54.9124 38.771C55.2444 38.4947 55.5118 38.1491 55.6957 37.7584C55.8797 37.3676 55.9758 36.9413 55.9773 36.5095C55.9727 36.3773 55.9594 36.2456 55.9373 36.1153L67.665 32.264L62.4443 45.9573C62.0656 46.9506 61.934 48.021 62.0607 49.0764C62.1875 50.1318 62.5688 51.1406 63.1719 52.016C63.775 52.8913 64.5817 53.607 65.5228 54.1014C66.4638 54.5958 67.5109 54.8542 68.5739 54.8542C69.6369 54.8542 70.6839 54.5958 71.6249 54.1014C72.566 53.607 73.3727 52.8913 73.9758 52.016C74.5789 51.1406 74.9602 50.1318 75.087 49.0764C75.2137 48.021 75.0821 46.9506 74.7034 45.9573H74.7077ZM42.5464 56.564C42.6688 56.8939 42.7603 57.2345 42.8196 57.5813H32.0315C32.0909 57.2345 32.1823 56.8939 32.3047 56.564L37.4261 43.1353L42.5464 56.564ZM63.1798 47.3613C63.2393 47.0145 63.3307 46.6739 63.453 46.3439L68.5733 32.912L73.6947 46.3385C73.817 46.6685 73.9084 47.0091 73.9679 47.3559L63.1798 47.3613Z" fill="#231F20"/>
<path d="M41.9386 61.6238C41.282 62.576 40.3411 63.2962 39.2504 63.6812C38.1597 64.0662 36.9752 64.0964 35.8663 63.7675C34.7575 63.4385 33.781 62.7672 33.0768 61.8497C32.3725 60.9322 31.9765 59.8154 31.9454 58.6592H42.9063C42.881 59.7208 42.5445 60.7517 41.9386 61.6238Z" fill="#FFBA50"/>
<path d="M53.0009 38.4048C54.0477 38.4048 54.8963 37.5562 54.8963 36.5094C54.8963 35.4626 54.0477 34.614 53.0009 34.614C51.9541 34.614 51.1055 35.4626 51.1055 36.5094C51.1055 37.5562 51.9541 38.4048 53.0009 38.4048Z" fill="#FF8E5A"/>
<path d="M41.866 71.7813H64.1367C64.2278 71.7813 64.3151 71.8174 64.3795 71.8818C64.4439 71.9462 64.4801 72.0336 64.4801 72.1247V73.7155C64.4801 73.8069 64.4438 73.8945 64.3792 73.9591C64.3146 74.0238 64.227 74.0601 64.1356 74.0601H41.8649C41.7738 74.0601 41.6865 74.0239 41.6221 73.9595C41.5577 73.8951 41.5215 73.8077 41.5215 73.7166V72.1247C41.5218 72.0335 41.5582 71.9462 41.6228 71.8818C41.6874 71.8174 41.7748 71.7812 41.866 71.7813Z" fill="#8D7F89"/>
<path d="M61.3373 70.7013H44.6621C45.3106 69.0163 46.4544 67.5673 47.9428 66.5453C49.4311 65.5234 51.1942 64.9763 52.9997 64.9763C54.8052 64.9763 56.5683 65.5234 58.0566 66.5453C59.545 67.5673 60.6888 69.0163 61.3373 70.7013Z" fill="#8D7F89"/>
<path d="M53.8359 63.9328C53.5594 63.9091 53.2808 63.8972 53 63.8972C52.7192 63.8972 52.4406 63.9091 52.1641 63.9328V39.351C52.7071 39.5295 53.2929 39.5295 53.8359 39.351V63.9328Z" fill="#FF8E5A"/>
<path d="M73.0889 51.4038C72.4323 52.356 71.4914 53.0762 70.4007 53.4612C69.31 53.8462 68.1255 53.8764 67.0166 53.5475C65.9078 53.2185 64.9313 52.5472 64.2271 51.6297C63.5228 50.7122 63.1268 49.5954 63.0957 48.4392H74.0609C74.0344 49.5013 73.6964 50.5322 73.0889 51.4038Z" fill="#FFBA50"/>
</svg>
