<svg width="77" height="77" viewBox="0 0 77 77" fill="none" xmlns="http://www.w3.org/2000/svg">
<rect width="77" height="77" rx="14" fill="#EFF9FD"/>
<path d="M26.5 38.5946C26.5 42.3113 27.9765 45.8758 30.6046 48.5039C33.2327 51.1321 36.7972 52.6085 40.514 52.6085C44.2307 52.6085 47.7952 51.1321 50.4234 48.5039C53.0515 45.8758 54.528 42.3113 54.528 38.5946C54.528 34.8778 53.0515 31.3133 50.4234 28.6852C47.7952 26.057 44.2307 24.5806 40.514 24.5806C36.7972 24.5806 33.2327 26.057 30.6046 28.6852C27.9765 31.3133 26.5 34.8778 26.5 38.5946Z" fill="#ED8F27"/>
<path d="M29.1268 38.5945C29.1268 40.09 29.4213 41.5709 29.9936 42.9525C30.5659 44.3342 31.4048 45.5896 32.4622 46.647C33.5197 47.7045 34.7751 48.5433 36.1568 49.1156C37.5384 49.6879 39.0193 49.9825 40.5148 49.9825C42.0103 49.9825 43.4911 49.6879 44.8727 49.1156C46.2544 48.5433 47.5098 47.7045 48.5673 46.647C49.6247 45.5896 50.4636 44.3342 51.0359 42.9525C51.6082 41.5709 51.9027 40.09 51.9027 38.5945C51.9027 35.5742 50.7029 32.6777 48.5673 30.542C46.4316 28.4063 43.535 27.2065 40.5148 27.2065C37.4945 27.2065 34.5979 28.4063 32.4622 30.542C30.3266 32.6777 29.1268 35.5742 29.1268 38.5945Z" fill="#FCE3C3"/>
<path d="M40.5723 51.0525C33.7217 51.0525 28.1484 45.4792 28.1484 38.6286C28.1484 31.7779 33.7217 26.2043 40.5723 26.2043C47.423 26.2043 52.9965 31.778 52.9965 38.6286C52.9966 45.4792 47.423 51.0525 40.5723 51.0525ZM40.5723 27.4174C34.3906 27.4174 29.3615 32.4468 29.3615 38.6286C29.3615 44.8103 34.3905 49.8394 40.5723 49.8394C46.7541 49.8394 51.7835 44.8103 51.7835 38.6286C51.7835 32.4468 46.754 27.4174 40.5723 27.4174Z" fill="#300604"/>
<path d="M40.5732 53.6784C32.2745 53.6784 25.5234 46.9273 25.5234 38.6286C25.5234 30.33 32.2746 23.5785 40.5732 23.5785C48.8718 23.5785 55.6234 30.33 55.6234 38.6286C55.6234 46.9273 48.8718 53.6784 40.5732 53.6784ZM40.5732 24.7914C32.9434 24.7914 26.7365 30.9989 26.7365 38.6286C26.7365 46.2583 32.9434 52.4653 40.5732 52.4653C48.2029 52.4653 54.4103 46.2583 54.4103 38.6286C54.4103 30.9989 48.2029 24.7914 40.5732 24.7914Z" fill="#300604"/>
<path d="M40.5732 53.6784C32.2745 53.6784 25.5234 46.9273 25.5234 38.6286C25.5234 30.33 32.2746 23.5785 40.5732 23.5785C48.8718 23.5785 55.6234 30.33 55.6234 38.6286C55.6234 46.9273 48.8718 53.6784 40.5732 53.6784ZM40.5732 24.7914C32.9434 24.7914 26.7365 30.9989 26.7365 38.6286C26.7365 46.2583 32.9434 52.4653 40.5732 52.4653C48.2029 52.4653 54.4103 46.2583 54.4103 38.6286C54.4103 30.9989 48.2029 24.7914 40.5732 24.7914ZM26.1912 27.8715L25.2206 27.1441C27.1685 24.5439 29.7581 22.4672 32.7089 21.1385L33.2073 22.245C30.4423 23.4896 28.0167 25.4351 26.1912 27.8715ZM55.0165 27.9536C51.6399 23.3924 46.2404 20.6694 40.5732 20.6694V19.4564C46.6231 19.4564 52.387 22.363 55.9918 27.2318L55.0165 27.9536Z" fill="#300604"/>
<path d="M39.9667 28.3228H41.1797V29.8348H39.9667V28.3228ZM35.9449 29.4012L36.701 30.7106L35.6506 31.3172L34.8945 30.0078L35.9449 29.4012ZM31.9526 32.9511L33.262 33.7073L32.6554 34.7577L31.346 34.0015L31.9526 32.9511ZM30.2678 38.0221H31.7798V39.2351H30.2678V38.0221ZM32.6551 42.5013L33.2616 43.5517L31.9522 44.3078L31.3456 43.2574L32.6551 42.5013ZM35.6507 45.9417L36.7011 46.5483L35.9449 47.8577L34.8945 47.2512L35.6507 45.9417ZM39.9667 47.422H41.1797V48.934H39.9667V47.422ZM45.4945 45.9416L46.2506 47.2511L45.2003 47.8576L44.4441 46.5482L45.4945 45.9416ZM48.4935 42.5009L49.8029 43.2571L49.1964 44.3074L47.887 43.5513L48.4935 42.5009ZM49.367 38.0221H50.879V39.2351H49.367V38.0221ZM49.1957 32.9516L49.8023 34.002L48.4929 34.7582L47.8864 33.7078L49.1957 32.9516ZM45.201 29.4018L46.2513 30.0084L45.4952 31.3178L44.4448 30.7112L45.201 29.4018Z" fill="#300604"/>
<path d="M38.8174 42.7322L37.7773 42.1083L39.9657 38.4608V32.1827H41.1788V38.7965L38.8174 42.7322Z" fill="#300604"/>
<path d="M28.4375 46.4557C27.785 46.9177 26.9902 47.1917 26.1299 47.1917C23.9199 47.1917 22.1283 45.4001 22.1283 43.1901C22.1283 40.9801 23.9199 39.1885 26.1299 39.1885C26.1347 39.1885 26.1393 39.1892 26.1441 39.1892C26.1369 39.0029 26.1299 38.8165 26.1299 38.6284C26.1299 36.6728 26.5205 34.8091 27.2247 33.1082C27.1583 33.0412 27.0673 32.9993 26.9669 32.9993H25.2929C25.2052 32.9993 25.1205 33.0309 25.0542 33.0884C24.988 33.1458 24.9447 33.2252 24.9323 33.312L24.7126 34.8497C24.6907 35.003 24.5737 35.1231 24.4223 35.1551C23.6755 35.3132 22.9547 35.5755 22.2809 35.9344C22.1442 36.0071 21.9774 35.9903 21.8621 35.8869L20.7056 34.8503C20.6404 34.7918 20.5562 34.7588 20.4685 34.7574C20.3809 34.7559 20.2956 34.7862 20.2285 34.8425L18.946 35.9186C18.8789 35.9749 18.8343 36.0536 18.8205 36.1402C18.8067 36.2268 18.8246 36.3154 18.8708 36.3899L19.6916 37.7101C19.7733 37.8415 19.761 38.0087 19.6657 38.1307C19.195 38.7318 18.8107 39.3959 18.5239 40.1035C18.4658 40.2468 18.3274 40.3409 18.1728 40.3359L16.6219 40.2853C16.5342 40.2824 16.4485 40.3112 16.3805 40.3665C16.3124 40.4217 16.2665 40.4997 16.2513 40.586L15.9606 42.2346C15.9454 42.3209 15.9618 42.4099 16.0069 42.4851C16.0519 42.5603 16.1226 42.6167 16.2059 42.644L17.6834 43.1277C17.8305 43.1759 17.9287 43.3119 17.9341 43.4667C17.9594 44.2047 18.0823 44.9635 18.3146 45.7313C18.3585 45.8764 18.3119 46.0336 18.1926 46.1271L16.987 47.0735C16.918 47.1277 16.8709 47.2049 16.8543 47.2909C16.8377 47.377 16.8527 47.4662 16.8965 47.5421L17.7335 48.9919C17.7773 49.0678 17.8471 49.1254 17.93 49.154C18.0128 49.1826 18.1033 49.1804 18.1846 49.1478L19.5154 48.6137C19.6569 48.5568 19.8204 48.5928 19.921 48.7073C20.4487 49.3083 21.0704 49.8196 21.7619 50.2215C21.896 50.2994 21.9628 50.4566 21.9309 50.6084L21.6302 52.039C21.6121 52.1248 21.6256 52.2142 21.6682 52.2908C21.7108 52.3675 21.7796 52.4262 21.862 52.4561L23.4351 53.0287C23.5175 53.0587 23.6079 53.058 23.6898 53.0266C23.7717 52.9953 23.8396 52.9355 23.8809 52.8582L24.6129 51.4891C24.6854 51.3534 24.8351 51.2805 24.9874 51.301C25.7704 51.4068 26.5356 51.4023 27.2698 51.3003C27.4229 51.279 27.5736 51.3519 27.6465 51.4883L28.3788 52.8582C28.4202 52.9355 28.488 52.9953 28.5699 53.0267C28.6518 53.058 28.7423 53.0587 28.8246 53.0287L30.3977 52.4561C30.4801 52.4262 30.5489 52.3675 30.5915 52.2908C30.6341 52.2142 30.6476 52.1248 30.6295 52.039L30.3101 50.5191C30.2783 50.3679 30.3469 50.2152 30.4778 50.1332C30.7303 49.975 30.9705 49.7995 31.2035 49.6156C30.1331 48.702 29.2014 47.6376 28.4375 46.4557Z" fill="#B12800"/>
<path d="M28.7007 53.6574C28.5249 53.6575 28.3524 53.6099 28.2016 53.5195C28.0508 53.4292 27.9274 53.2995 27.8446 53.1445L27.1907 51.9212C26.5285 52.0041 25.7857 52.0065 25.0694 51.9228L24.4159 53.1441C24.194 53.5603 23.6736 53.7612 23.2282 53.5986L21.6554 53.026C21.2037 52.8622 20.9379 52.3839 21.0375 51.9136L21.3024 50.6532C20.6665 50.2647 20.0882 49.789 19.5844 49.2399L18.4112 49.7106C17.9721 49.8867 17.4437 49.7019 17.2088 49.2956L16.372 47.8457C16.1315 47.4298 16.2354 46.8928 16.6133 46.5963L17.6889 45.7516C17.4911 45.0559 17.3723 44.3511 17.3355 43.6517L16.0178 43.2205C15.5614 43.0709 15.2806 42.6013 15.3643 42.1287L15.6545 40.4805C15.6938 40.2556 15.8112 40.0519 15.9861 39.9052C16.1609 39.7585 16.3819 39.6782 16.6101 39.6785L18.0253 39.7243C18.3043 39.0713 18.6612 38.4545 19.0883 37.8873L18.3562 36.7102C18.1027 36.3027 18.1888 35.7624 18.5568 35.4537L19.8393 34.3777C20.1955 34.0784 20.7622 34.0867 21.1104 34.3982L22.1423 35.323C22.7752 35.0011 23.445 34.7574 24.1368 34.5973L24.3322 33.2263C24.4005 32.7508 24.8135 32.3927 25.2933 32.3927H26.9676C27.2274 32.3927 27.4722 32.4953 27.6563 32.6817L27.9394 32.968L27.7853 33.3399C27.0896 35.0209 26.737 36.8002 26.737 38.6285C26.737 38.8085 26.7441 38.9874 26.7508 39.1659L26.7749 39.7957L26.1099 39.7949C24.2473 39.8059 22.7353 41.3247 22.7353 43.19C22.7353 45.0621 24.2584 46.5851 26.1304 46.5851C26.8336 46.5851 27.5105 46.3692 28.0878 45.9604L28.6043 45.5952L28.9474 46.1262C29.6793 47.2588 30.5721 48.2788 31.5978 49.1542L32.16 49.6339L31.5796 50.0916C31.3521 50.2709 31.1408 50.4249 30.9383 50.5583L31.2234 51.9144C31.3225 52.3834 31.0572 52.8617 30.6058 53.0259L29.0323 53.5985C28.9261 53.6376 28.8138 53.6575 28.7007 53.6574ZM27.323 50.6904C27.6835 50.6904 28.0124 50.8862 28.1818 51.2018L28.8152 52.3871L29.9931 51.9583L29.7172 50.6442C29.6342 50.2473 29.8107 49.8358 30.1566 49.6191C30.1842 49.6017 30.2127 49.5839 30.2407 49.5653C29.5052 48.8702 28.8414 48.1029 28.2593 47.275C27.6038 47.619 26.8783 47.7983 26.1305 47.7983C23.5895 47.7983 21.5224 45.7311 21.5224 43.1901C21.5224 40.8549 23.2685 38.9196 25.5239 38.6218C25.5248 36.8982 25.8138 35.2149 26.3844 33.6058H25.5034L25.3139 34.9353C25.2555 35.3377 24.9479 35.6642 24.5479 35.7487C23.8568 35.8952 23.1896 36.1379 22.566 36.4698C22.2149 36.6573 21.7545 36.6052 21.4576 36.3383L20.4578 35.4423L19.4975 36.2482L20.2075 37.3898C20.4215 37.7346 20.3958 38.1823 20.1435 38.5046C19.708 39.0613 19.3523 39.6761 19.0868 40.3312C18.9364 40.7024 18.5826 40.9425 18.1853 40.9425L16.8128 40.8982L16.5952 42.133L17.8726 42.5512C18.2588 42.6775 18.5273 43.0373 18.5408 43.4467C18.5649 44.1461 18.6841 44.8561 18.8958 45.5561C19.0135 45.9443 18.8843 46.3558 18.5676 46.6041L17.5275 47.4212L18.1542 48.5066L19.2902 48.0509C19.6633 47.9005 20.1135 48.0063 20.3777 48.308C20.8621 48.8594 21.4327 49.3286 22.0673 49.6972C22.4274 49.9057 22.6114 50.3223 22.525 50.7333L22.2679 51.9582L23.4454 52.3866L24.0788 51.2032C24.2687 50.8486 24.6616 50.646 25.0691 50.7001C25.7783 50.7957 26.4942 50.7949 27.1872 50.6997C27.2322 50.6935 27.2776 50.6904 27.323 50.6904Z" fill="#300604"/>
<path d="M26.1296 47.7983C23.5887 47.7983 21.5215 45.7312 21.5215 43.1902C21.5215 40.6492 23.5886 38.582 26.1296 38.582L26.7279 38.5829L26.75 39.1661C26.8443 41.6427 27.6041 44.0495 28.9466 46.1265L29.2621 46.615L28.7875 46.951C28.0045 47.5053 27.0852 47.7983 26.1296 47.7983ZM25.5748 39.8404C23.9657 40.1058 22.7345 41.5068 22.7345 43.1901C22.7345 45.0622 24.2575 46.5852 26.1296 46.5852C26.638 46.5858 27.14 46.4711 27.5977 46.2496C26.4483 44.2962 25.7565 42.1031 25.5748 39.8404Z" fill="#300604"/>
<path d="M33.9112 54.4056L34.7306 55.3001L33.5825 56.3513L34.0579 57.83L32.9032 58.2016L32.1895 55.9818L33.9112 54.4056Z" fill="#231F20"/>
<path d="M56.0955 29.5323L57.1516 28.9358C58.7499 31.7644 59.6109 34.9702 59.6419 38.2063L58.4285 38.218C58.3998 35.186 57.5929 32.183 56.0955 29.5323Z" fill="#300604"/>
<path d="M40.5367 58.0555C37.8626 58.0555 35.2743 57.5164 32.8438 56.4533L33.323 55.3575C35.6015 56.3542 38.0285 56.8595 40.5367 56.8595C45.0239 56.8595 49.3234 55.1999 52.643 52.1864C55.9399 49.1935 58.0053 45.1171 58.4588 40.708L59.6485 40.8303C59.1648 45.5331 56.9624 49.8806 53.4469 53.0719C49.9067 56.2857 45.3219 58.0555 40.5367 58.0555Z" fill="#300604"/>
</svg>
