<svg width="77" height="77" viewBox="0 0 77 77" fill="none" xmlns="http://www.w3.org/2000/svg">
<rect width="77" height="77" rx="14" fill="#EFF9FD"/>
<g clip-path="url(#clip0_705_36)">
<path d="M27.6955 57.6617H17.3468C16.8091 57.6617 16.2988 57.4238 15.9532 57.0118L11.5371 51.7483C10.8217 50.8956 10.4277 49.813 10.4277 48.6999V34.9997C10.4277 33.8866 10.8217 32.804 11.5371 31.9513L19.0712 22.972C20.7715 20.9457 23.8175 20.6162 25.8614 22.238C28.0141 23.9459 28.3264 27.0801 26.5661 29.1781L20.8385 36.0041V37.805C21.7063 36.6954 23.0315 35.964 24.5139 35.9233C27.2602 35.8483 29.5146 38.0468 29.5146 40.7868V55.8426C29.5147 56.8473 28.7002 57.6617 27.6955 57.6617Z" fill="#FFD15C"/>
<path d="M22.6962 45.9942C23.7008 45.9942 24.5153 45.1797 24.5153 44.1751V35.9233C24.5149 35.9233 24.5144 35.9233 24.514 35.9233C23.0529 35.9635 21.7453 36.6755 20.877 37.7585V44.1751C20.8771 45.1798 21.6914 45.9942 22.6962 45.9942Z" fill="#F8B64C"/>
<path d="M30.5317 66.7429H11.8191C10.8145 66.7429 10 65.9285 10 64.9238V55.8427C10 54.8381 10.8145 54.0236 11.8191 54.0236H30.5316C31.5362 54.0236 32.3507 54.8381 32.3507 55.8427V64.9238C32.3508 65.9284 31.5363 66.7429 30.5317 66.7429Z" fill="#169ED9"/>
<path d="M42.9224 29.9015L38.4997 27.5764L34.077 29.9015C32.7452 30.6018 31.183 29.4677 31.4375 27.9838L32.2821 23.0591L28.7042 19.5714C27.6266 18.521 28.2225 16.685 29.7124 16.4686L34.657 15.7502L36.8683 11.2694C37.5344 9.91991 39.4646 9.91968 40.1309 11.2694L42.3421 15.7502L47.2867 16.4686C48.776 16.6851 49.3728 18.5207 48.2949 19.5714L44.7169 23.0591L45.5616 27.9838C45.8179 29.4764 44.2457 30.597 42.9224 29.9015Z" fill="#FF7058"/>
<path d="M47.4863 55.8426V40.7868C47.4863 38.0501 49.7376 35.8482 52.4871 35.9232C53.9694 35.9639 55.2947 36.6954 56.1625 37.805V36.0041L50.4347 29.178C48.6755 27.0815 48.9851 23.9471 51.1394 22.2379C53.1834 20.6161 56.2296 20.9456 57.9296 22.9719L65.4638 31.9512C66.1792 32.8038 66.5732 33.8865 66.5732 34.9996V48.6999C66.5732 49.813 66.1792 50.8955 65.4638 51.7483L61.0478 57.0118C60.7021 57.4238 60.1919 57.6617 59.6542 57.6617H49.3054C48.3008 57.6617 47.4863 56.8473 47.4863 55.8426Z" fill="#F8B64C"/>
<path d="M54.3054 45.9942C53.3008 45.9942 52.4863 45.1797 52.4863 44.1751V35.9233C52.4867 35.9233 52.4872 35.9233 52.4876 35.9233C53.9487 35.9635 55.2563 36.6755 56.1246 37.7585V44.1751C56.1245 45.1798 55.3102 45.9942 54.3054 45.9942Z" fill="#F59D00"/>
<path d="M44.6484 64.9237V55.8425C44.6484 54.8379 45.4629 54.0234 46.4675 54.0234H65.1801C66.1848 54.0234 66.9992 54.8379 66.9992 55.8425V64.9237C66.9992 65.9283 66.1848 66.7428 65.1801 66.7428H46.4675C45.4629 66.7429 44.6484 65.9283 44.6484 64.9237Z" fill="#127FB5"/>
<path d="M47.2873 16.4685L42.3427 15.7501L40.1315 11.2694C39.7984 10.5944 39.149 10.2569 38.4999 10.2571V27.5766L38.5002 27.5764L42.923 29.9015C44.2462 30.5969 45.8185 29.4764 45.5625 27.9837L44.7179 23.059L48.2959 19.5713C49.3734 18.5206 48.7766 16.685 47.2873 16.4685Z" fill="#F1543F"/>
</g>
<defs>
<clipPath id="clip0_705_36">
<rect width="57" height="57" fill="white" transform="translate(10 10)"/>
</clipPath>
</defs>
</svg>
