<svg width="23" height="23" viewBox="0 0 23 23" fill="none" xmlns="http://www.w3.org/2000/svg">
<path d="M22.0759 20.8621L16.7071 15.4944C18.2632 13.6261 19.0391 11.2299 18.8735 8.8042C18.7079 6.37846 17.6135 4.10995 15.8179 2.47058C14.0223 0.83121 11.6638 -0.0528014 9.23308 0.00244157C6.80232 0.0576846 4.48643 1.04793 2.76718 2.76718C1.04793 4.48643 0.0576846 6.80232 0.00244157 9.23308C-0.0528014 11.6638 0.83121 14.0223 2.47058 15.8179C4.10995 17.6135 6.37846 18.7079 8.8042 18.8735C11.2299 19.0391 13.6261 18.2632 15.4944 16.7071L20.8621 22.0759C20.9418 22.1556 21.0364 22.2188 21.1406 22.262C21.2447 22.3051 21.3563 22.3273 21.469 22.3273C21.5817 22.3273 21.6933 22.3051 21.7975 22.262C21.9016 22.2188 21.9962 22.1556 22.0759 22.0759C22.1556 21.9962 22.2188 21.9016 22.262 21.7975C22.3051 21.6933 22.3273 21.5817 22.3273 21.469C22.3273 21.3563 22.3051 21.2447 22.262 21.1406C22.2188 21.0364 22.1556 20.9418 22.0759 20.8621ZM1.73933 9.45964C1.73933 7.9327 2.19211 6.44006 3.04043 5.17046C3.88875 3.90086 5.0945 2.91133 6.5052 2.327C7.9159 1.74267 9.4682 1.58978 10.9658 1.88767C12.4634 2.18556 13.839 2.92085 14.9187 4.00055C15.9984 5.08026 16.7337 6.45589 17.0316 7.95348C17.3295 9.45107 17.1766 11.0034 16.5923 12.4141C16.0079 13.8248 15.0184 15.0305 13.7488 15.8788C12.4792 16.7272 10.9866 17.18 9.45964 17.18C7.41278 17.1777 5.45041 16.3636 4.00306 14.9162C2.55571 13.4689 1.7416 11.5065 1.73933 9.45964Z" fill="white"/>
</svg>
