<svg width="25" height="25" viewBox="0 0 25 25" fill="none" xmlns="http://www.w3.org/2000/svg">
<path d="M11.7195 14.485C11.7195 11.9545 9.66077 9.89575 7.1302 9.89575C4.59968 9.89575 2.54102 11.9545 2.54102 14.485C2.54102 15.2265 2.71795 15.9275 3.03166 16.548L7.1302 25L11.2295 16.5467C11.5427 15.9264 11.7195 15.226 11.7195 14.485ZM7.1302 17.0247C5.72986 17.0247 4.59052 15.8853 4.59052 14.485C4.59052 13.0846 5.72986 11.9453 7.1302 11.9453C8.53059 11.9453 9.66988 13.0846 9.66988 14.485C9.66988 15.8853 8.53059 17.0247 7.1302 17.0247Z" fill="#21A6E9"/>
<path d="M20.1344 0C18.8531 0 17.8105 1.04247 17.8105 2.32383C17.8105 2.69934 17.9002 3.05425 18.059 3.36853L20.1344 7.64843L22.2102 3.36786C22.3688 3.05378 22.4583 2.69908 22.4583 2.32388C22.4583 1.04247 21.4157 0 20.1344 0ZM20.1344 3.60987C19.4253 3.60987 18.8484 3.03298 18.8484 2.32383C18.8484 1.61474 19.4253 1.03778 20.1344 1.03778C20.8435 1.03778 21.4204 1.61474 21.4204 2.32383C21.4204 3.03298 20.8435 3.60987 20.1344 3.60987Z" fill="#21A6E9"/>
<path d="M18.1107 15.0759C18.0165 14.6325 17.894 14.198 17.7398 13.7714C17.533 13.1998 17.2851 12.6412 17.0951 12.0631C16.7402 10.9825 17.3525 10.0807 17.4676 9.91682C17.6693 9.6298 17.905 9.3664 18.1538 9.1197C18.6328 8.64482 19.1611 8.2203 19.7137 7.82934C19.6453 7.72326 19.5789 7.61604 19.5158 7.50684C18.7209 7.81846 14.6331 9.24716 14.7327 12.4034C14.7527 13.0362 14.9972 13.6383 15.1478 14.2517C15.2204 14.5472 15.2834 14.8454 15.3219 15.1474C15.3385 15.2834 15.3487 15.4202 15.3598 15.5568C15.3601 15.5558 15.36 15.5551 15.3594 15.5545C15.3597 15.5585 15.3699 15.9877 15.3508 16.1736C15.2912 16.7557 15.2052 17.3438 14.9598 17.8778C14.7316 18.3743 14.3872 18.806 13.9613 19.1473C12.9876 19.9274 11.6975 20.2392 10.4802 20.3646C10.4223 20.3707 10.3643 20.3759 10.3063 20.3809L8.13281 24.8629C9.20525 24.7963 10.2749 24.6495 11.3185 24.3927C12.5467 24.0904 13.7435 23.6337 14.816 22.9569C15.8875 22.2808 16.8089 21.3661 17.4224 20.2525C18.0641 19.0876 18.3212 17.7533 18.2665 16.4312C18.2479 15.9795 18.205 15.5192 18.1107 15.0759Z" fill="#21A6E9"/>
</svg>
