<svg width="102" height="102" viewBox="0 0 102 102" fill="none" xmlns="http://www.w3.org/2000/svg">
<circle cx="51" cy="51" r="51" fill="#EEF1F4"/>
<path d="M38.1628 42.0698C38.1628 43.2841 38.5229 44.4711 39.1975 45.4807C39.8721 46.4904 40.831 47.2773 41.9528 47.742C43.0747 48.2066 44.3091 48.3282 45.5001 48.0913C46.691 47.8544 47.785 47.2697 48.6436 46.4111C49.5023 45.5524 50.087 44.4585 50.3239 43.2675C50.5608 42.0766 50.4392 40.8421 49.9745 39.7203C49.5098 38.5984 48.7229 37.6396 47.7133 36.9649C46.7036 36.2903 45.5166 35.9302 44.3023 35.9302C42.6744 35.9314 41.1135 36.5786 39.9623 37.7298C38.8112 38.8809 38.164 40.4418 38.1628 42.0698ZM47.093 42.0698C47.093 42.6217 46.9294 43.1613 46.6227 43.6202C46.3161 44.0791 45.8802 44.4368 45.3703 44.648C44.8603 44.8593 44.2992 44.9145 43.7579 44.8068C43.2165 44.6992 42.7193 44.4334 42.329 44.0431C41.9387 43.6528 41.6729 43.1555 41.5653 42.6142C41.4576 42.0729 41.5128 41.5117 41.7241 41.0018C41.9353 40.4919 42.293 40.056 42.7519 39.7494C43.2108 39.4427 43.7504 39.2791 44.3023 39.2791C45.0421 39.2803 45.7512 39.5746 46.2743 40.0978C46.7974 40.6209 47.0918 41.33 47.093 42.0698ZM73.3256 44.8605C72.8815 44.8605 72.4556 45.0369 72.1416 45.3509C71.8276 45.6649 71.6512 46.0908 71.6512 46.5349V51.5961L70.7782 50.8482C69.5855 49.86 68.0853 49.3192 66.5364 49.3192C64.9875 49.3192 63.4872 49.86 62.2945 50.8482L53.0093 58.814C52.424 59.28 51.6979 59.5337 50.9498 59.5337C50.2016 59.5337 49.4755 59.28 48.8902 58.814L48.149 58.1777C47.0492 57.2674 45.6862 56.7342 44.2606 56.6566C42.8351 56.5791 41.4222 56.9612 40.2301 57.7468L31.0164 63.931C30.5331 61.8895 30.3088 59.7952 30.3488 57.6977V44.3023C30.3488 34.0013 34.0013 30.3488 44.3023 30.3488H53.2326C53.6766 30.3488 54.1025 30.1724 54.4166 29.8584C54.7306 29.5444 54.907 29.1185 54.907 28.6744C54.907 28.2303 54.7306 27.8044 54.4166 27.4904C54.1025 27.1764 53.6766 27 53.2326 27H44.3023C32.1751 27 27 32.1728 27 44.3023V57.6977C27 69.8272 32.1751 75 44.3023 75H57.6977C69.8249 75 75 69.8272 75 57.6977V46.5349C75 46.0908 74.8236 45.6649 74.5096 45.3509C74.1956 45.0369 73.7697 44.8605 73.3256 44.8605ZM71.6512 57.6977C71.6512 67.9987 67.9987 71.6512 57.6977 71.6512H44.3023C38.1472 71.6512 34.3808 70.3317 32.3336 67.0856L42.0943 60.5353C42.6796 60.1608 43.3669 59.9777 44.061 60.0113C44.755 60.0449 45.4214 60.2935 45.9678 60.7228L46.709 61.3613C47.9008 62.3515 49.4014 62.8936 50.9509 62.8936C52.5004 62.8936 54.001 62.3515 55.1927 61.3613L64.4847 53.3888C65.0704 52.9249 65.7958 52.6724 66.5431 52.6724C67.2903 52.6724 68.0157 52.9249 68.6015 53.3888L71.6556 56.0099L71.6512 57.6977ZM57.6977 35.3721C57.6977 34.928 57.8741 34.5021 58.1881 34.1881C58.5021 33.8741 58.928 33.6977 59.3721 33.6977H63.8372V29.2326C63.8372 28.7885 64.0136 28.3626 64.3276 28.0486C64.6417 27.7346 65.0675 27.5581 65.5116 27.5581C65.9557 27.5581 66.3816 27.7346 66.6956 28.0486C67.0096 28.3626 67.186 28.7885 67.186 29.2326V33.6977H71.6512C72.0952 33.6977 72.5211 33.8741 72.8352 34.1881C73.1492 34.5021 73.3256 34.928 73.3256 35.3721C73.3256 35.8162 73.1492 36.2421 72.8352 36.5561C72.5211 36.8701 72.0952 37.0465 71.6512 37.0465H67.186V41.5116C67.186 41.9557 67.0096 42.3816 66.6956 42.6956C66.3816 43.0096 65.9557 43.186 65.5116 43.186C65.0675 43.186 64.6417 43.0096 64.3276 42.6956C64.0136 42.3816 63.8372 41.9557 63.8372 41.5116V37.0465H59.3721C58.928 37.0465 58.5021 36.8701 58.1881 36.5561C57.8741 36.2421 57.6977 35.8162 57.6977 35.3721Z" fill="#9BA5B7"/>
</svg>
