<svg width="22" height="22" viewBox="0 0 22 22" fill="none" xmlns="http://www.w3.org/2000/svg">
<g clip-path="url(#clip0_290_110)">
<path d="M21.6443 8.56849C21.6443 7.26929 20.6201 6.20487 19.3367 6.14007V2.20005C19.3367 1.17688 18.5072 0.347412 17.4841 0.347412H4.51566C3.49249 0.347412 2.66302 1.17688 2.66302 2.20005V11.6983C1.37971 11.7631 0.355469 12.8272 0.355469 14.1264C0.355469 15.4256 1.37963 16.49 2.66302 16.5548V19.8001C2.66302 20.8232 3.49249 21.6527 4.51566 21.6527H17.4841C18.5073 21.6527 19.3367 20.8232 19.3367 19.8001V10.9965C20.62 10.9317 21.6443 9.86761 21.6443 8.56849ZM1.05019 14.1264C1.05019 13.2105 1.76304 12.4585 2.66298 12.3946V15.8583C1.76304 15.7944 1.05019 15.0423 1.05019 14.1264ZM19.3367 10.3003V6.83655C20.2367 6.9004 20.9495 7.65249 20.9495 8.56849C20.9495 9.48442 20.2367 10.2364 19.3367 10.3003Z" fill="#F2EFE2"/>
<path d="M4.16797 6.13679C4.16797 5.94493 4.32352 5.78943 4.51533 5.78943H8.68377C8.87563 5.78943 9.03113 5.94498 9.03113 6.13679C9.03113 6.32864 8.87558 6.48415 8.68377 6.48415H4.51533C4.32347 6.48415 4.16797 6.32864 4.16797 6.13679ZM17.4837 15.5157H13.3153C13.1234 15.5157 12.9679 15.6713 12.9679 15.8631C12.9679 16.0549 13.1235 16.2105 13.3153 16.2105H17.4837C17.6756 16.2105 17.8311 16.0549 17.8311 15.8631C17.8311 15.6713 17.6756 15.5157 17.4837 15.5157ZM9.14689 12.2736H4.51533C4.32347 12.2736 4.16797 12.4292 4.16797 12.621C4.16797 12.8128 4.32352 12.9683 4.51533 12.9683H9.14689C9.33874 12.9683 9.49425 12.8128 9.49425 12.621C9.49425 12.4292 9.33874 12.2736 9.14689 12.2736ZM17.4837 12.2736H13.3153C13.1234 12.2736 12.9679 12.4292 12.9679 12.621C12.9679 12.8128 13.1235 12.9683 13.3153 12.9683H17.4837C17.6756 12.9683 17.8311 12.8128 17.8311 12.621C17.8311 12.4292 17.6756 12.2736 17.4837 12.2736ZM8.79953 9.37891C8.79953 9.57076 8.95507 9.72627 9.14689 9.72627H17.4837C17.6756 9.72627 17.8311 9.57072 17.8311 9.37891C17.8311 9.18705 17.6755 9.03155 17.4837 9.03155H9.14689C8.95507 9.03151 8.79953 9.18705 8.79953 9.37891ZM4.51533 9.72627H6.36797C6.55982 9.72627 6.71533 9.57072 6.71533 9.37891C6.71533 9.18705 6.55978 9.03155 6.36797 9.03155H4.51533C4.32347 9.03155 4.16797 9.1871 4.16797 9.37891C4.16797 9.57072 4.32347 9.72627 4.51533 9.72627ZM7.71109 9.03151C7.51923 9.03151 7.36373 9.18705 7.36373 9.37887C7.36373 9.57072 7.51927 9.72623 7.71109 9.72623H7.75741C7.94926 9.72623 8.10477 9.57068 8.10477 9.37887C8.10477 9.18701 7.94922 9.03151 7.75741 9.03151H7.71109ZM10.5827 12.2736H10.5364C10.3445 12.2736 10.189 12.4292 10.189 12.621C10.189 12.8128 10.3446 12.9683 10.5364 12.9683H10.5827C10.7745 12.9683 10.93 12.8128 10.93 12.621C10.93 12.4292 10.7745 12.2736 10.5827 12.2736ZM11.9258 12.2736H11.8795C11.6877 12.2736 11.5322 12.4292 11.5322 12.621C11.5322 12.8128 11.6877 12.9683 11.8795 12.9683H11.9258C12.1177 12.9683 12.2732 12.8128 12.2732 12.621C12.2732 12.4292 12.1177 12.2736 11.9258 12.2736Z" fill="#BFBBA3"/>
<path d="M11.3273 16.1217L9.52607 17.5431C9.43562 17.6145 9.28897 17.6145 9.19857 17.5431C9.15513 17.5089 9.13076 17.4624 9.13076 17.4139V16.558H3.01859H2.78703C1.44623 16.558 0.355469 15.4672 0.355469 14.1264C0.355469 12.8244 1.38405 11.7584 2.67127 11.6977V12.3938C1.76738 12.4537 1.05023 13.2076 1.05023 14.1264C1.05023 15.0841 1.82934 15.8632 2.78707 15.8632H3.01863H9.13081V14.3125C9.13081 14.2641 9.15521 14.2175 9.19861 14.1833C9.28906 14.1119 9.43571 14.1119 9.52612 14.1833L11.3274 15.6048C11.5082 15.7475 11.5082 15.9789 11.3273 16.1217ZM19.2126 6.13688H18.981H12.8525V4.58618C12.8525 4.53775 12.8281 4.49122 12.7847 4.45697C12.6942 4.3856 12.5476 4.3856 12.4571 4.45697L10.6559 5.87846C10.475 6.02121 10.475 6.25259 10.6559 6.39533L12.4571 7.81683C12.5476 7.8882 12.6942 7.8882 12.7847 7.81683C12.8281 7.78254 12.8525 7.73605 12.8525 7.68762V6.83164H18.981H19.2126C20.1703 6.83164 20.9494 7.61075 20.9494 8.56848C20.9494 9.48724 20.2323 10.2412 19.3284 10.301V10.9971C20.6156 10.9364 21.6442 9.87043 21.6442 8.56844C21.6442 7.22768 20.5534 6.13688 19.2126 6.13688Z" fill="#FC8059"/>
<path d="M19.6759 5.79184V2.2C19.6759 0.986949 18.689 0 17.476 0H4.50755C3.2945 0 2.30755 0.986949 2.30755 2.2V11.3505C1.02412 11.4152 0 12.4798 0 13.779C0 15.1198 1.09076 16.2105 2.43156 16.2105H8.77529V17.4138C8.77529 17.5689 8.84817 17.7154 8.97518 17.8157L8.97527 17.8158C9.19132 17.9862 9.51711 17.9862 9.73315 17.8158L11.5344 16.3943C11.7046 16.26 11.8022 16.0664 11.8022 15.8632C11.8022 15.66 11.7046 15.4664 11.5344 15.3321L9.7332 13.9106C9.51715 13.7401 9.19132 13.7401 8.97527 13.9106C8.84817 14.0109 8.77529 14.1574 8.77529 14.3125V15.5158H3.00227V2.2C3.00227 1.37002 3.67757 0.694719 4.50755 0.694719H17.476C18.306 0.694719 18.9813 1.37002 18.9813 2.2V5.78948H13.1917V4.58618C13.1917 4.43102 13.1188 4.2845 12.9916 4.18421C12.7756 4.0138 12.4499 4.0138 12.2339 4.18425L10.4326 5.60575C10.2624 5.74007 10.1649 5.93364 10.1648 6.13684C10.1648 6.34004 10.2624 6.53361 10.4326 6.66798L12.2338 8.08938C12.4499 8.25997 12.7758 8.25993 12.9916 8.08951C13.1188 7.98922 13.1917 7.8427 13.1917 7.6875V6.4842H19.5684C20.5261 6.4842 21.3052 7.26331 21.3052 8.22104C21.3052 9.14259 20.5837 9.89888 19.6759 9.95461V8.22104C19.6759 8.02918 19.5205 7.87368 19.3286 7.87368C19.1367 7.87368 18.9812 8.02923 18.9812 8.22104V19.8C18.9812 20.63 18.306 21.3053 17.476 21.3053H4.50755C3.67757 21.3053 3.00227 20.63 3.00227 19.8V17.9474C3.00227 17.7555 2.84672 17.6 2.65491 17.6C2.4631 17.6 2.30755 17.7555 2.30755 17.9474V19.8C2.30755 21.0131 3.2945 22 4.50755 22H17.476C18.689 22 19.676 21.0131 19.676 19.8V10.6503C20.9671 10.5939 22 9.52583 22 8.22104C22 6.91625 20.9671 5.84826 19.6759 5.79184ZM2.30755 15.5114C1.40748 15.4476 0.694762 14.695 0.694762 13.7789C0.694762 12.8629 1.40753 12.1103 2.30755 12.0465V15.5114ZM9.47005 14.5879L11.0861 15.8632L9.47005 17.1384V14.5879ZM12.497 7.41207L10.881 6.13684L12.497 4.86157V7.41207Z" fill="#4C4C4C"/>
</g>
<defs>
<clipPath id="clip0_290_110">
<rect width="22" height="22" fill="white"/>
</clipPath>
</defs>
</svg>
