<svg width="26" height="26" viewBox="0 0 26 26" fill="none" xmlns="http://www.w3.org/2000/svg">
<g clip-path="url(#clip0_290_239)">
<path d="M13 25.9915C20.1797 25.9915 26 20.175 26 13C26 5.82502 20.1797 0.00854492 13 0.00854492C5.8203 0.00854492 0 5.82502 0 13C0 20.175 5.8203 25.9915 13 25.9915Z" fill="#4DAF50"/>
<path d="M17.1113 14.5604L15.6172 15.7281L18.4786 19.3893L19.9728 18.2215L17.1113 14.5604Z" fill="white"/>
<path d="M17.7076 19.9944L14.846 16.3312C12.248 15.6077 10.4247 13.2758 10.3496 10.5799L7.48797 6.91882C7.48797 6.91882 4.77665 10.803 9.03172 16.2443C13.2868 21.6856 17.7076 19.9944 17.7076 19.9944Z" fill="white"/>
<path d="M9.75197 5.14801L8.25781 6.3158L11.1192 9.97692L12.6134 8.80913L9.75197 5.14801Z" fill="white"/>
</g>
<defs>
<clipPath id="clip0_290_239">
<rect width="26" height="26" fill="white"/>
</clipPath>
</defs>
</svg>
