<svg width="25" height="25" viewBox="0 0 25 25" fill="none" xmlns="http://www.w3.org/2000/svg">
<path d="M20.832 8.9591L12.1029 17.6883C11.8008 17.9904 11.4049 18.1779 10.9779 18.2195L7.92578 18.5008H7.8112C7.46745 18.5008 7.13411 18.3654 6.89453 18.1154C6.6237 17.8445 6.48828 17.4591 6.51953 17.0737L6.80078 14.0216C6.84245 13.5945 7.02995 13.1987 7.33203 12.8966L16.0404 4.16744L20.832 8.9591ZM22.8529 2.88619L22.1133 2.1466C21.5749 1.61113 20.8465 1.31055 20.0872 1.31055C19.3279 1.31055 18.5995 1.61113 18.0612 2.1466L17.1445 3.06327L21.9362 7.85494L22.8529 6.93827C23.1197 6.6737 23.3315 6.35891 23.476 6.01207C23.6205 5.66522 23.695 5.29319 23.695 4.91744C23.695 4.54168 23.6205 4.16965 23.476 3.8228C23.3315 3.47596 23.1197 3.16117 22.8529 2.8966V2.88619ZM21.6133 19.8029V13.7508C21.6133 13.3237 21.2591 12.9695 20.832 12.9695C20.4049 12.9695 20.0508 13.3237 20.0508 13.7508V19.8029C20.0508 21.0945 18.9987 22.1466 17.707 22.1466H5.20703C3.91536 22.1466 2.86328 21.0945 2.86328 19.8029V7.29244C2.86328 6.00077 3.91536 4.94869 5.20703 4.94869H11.2591C11.6862 4.94869 12.0404 4.59452 12.0404 4.16744C12.0404 3.74035 11.6862 3.38619 11.2591 3.38619H5.20703C3.05078 3.38619 1.30078 5.13619 1.30078 7.29244V19.7924C1.30078 21.9487 3.05078 23.6987 5.20703 23.6987H17.707C19.8633 23.6987 21.6133 21.9487 21.6133 19.7924V19.8029Z" fill="#21A6E9"/>
</svg>
